<svg xmlns="http://www.w3.org/2000/svg" version="1.1" xmlns:xlink="http://www.w3.org/1999/xlink" xmlns:svgjs="http://svgjs.dev/svgjs" viewBox="0 0 10.78911066624477 3.1854141470720423"><g transform="matrix(1,0,0,1,0.47021430087945504,0.591667093067271)"><rect width="10.78911066624477" height="10.78911066624477" x="-0.47021430087945504" y="-4.393515352653635" fill="#2c0b40"></rect><g><path d=" M 0.876076171875 1.09772607421875 Q 0.9905185546874999 1.00827685546875 1.082269775390625 0.9076464843750001 Q 1.17402099609375 0.8070161132812501 1.238148193359375 0.704083740234375 Q 1.302275390625 0.6011513671875001 1.3364765625 0.4988767089843751 Q 1.370677734375 0.3966020507812501 1.370677734375 0.30386425781250004 Q 1.370677734375 0.24993164062500006 1.359167724609375 0.2032338867187501 Q 1.34765771484375 0.15653613281250012 1.325953125 0.12266381835937512 Q 1.30424853515625 0.08879150390625012 1.273664794921875 0.06938891601562514 Q 1.2430810546875 0.049986328125000146 1.20493359375 0.049986328125000146 L 1.19243701171875 0.049986328125000146 Q 1.181255859375 0.049986328125000146 1.173692138671875 0.04340917968750002 Q 1.1661284179687499 0.03683203125000012 1.1661284179687499 0.025650878906250174 Q 1.1661284179687499 0.009865722656249964 1.177638427734375 0.004932861328124982 Q 1.1891484374999999 0 1.2036181640624999 0 Q 1.25163134765625 0 1.291751953125 0.022362304687500112 Q 1.3318725585937499 0.044724609375 1.360154296875 0.08484521484374996 Q 1.38843603515625 0.12496582031250014 1.40422119140625 0.1795561523437501 Q 1.42000634765625 0.23414648437500007 1.42000634765625 0.29794482421875 Q 1.42000634765625 0.40186376953125 1.384160888671875 0.511373291015625 Q 1.3483154296875 0.6208828125000001 1.278268798828125 0.7317077636718751 Q 1.20822216796875 0.84253271484375 1.104632080078125 0.9523710937500001 Q 1.0010419921875 1.06220947265625 0.86621044921875 1.1667861328125 Q 0.862921875 1.1694169921875 0.85766015625 1.17270556640625 Q 0.8523984375 1.175994140625 0.84516357421875 1.175994140625 Q 0.8326669921875 1.175994140625 0.8267475585937499 1.167772705078125 Q 0.820828125 1.15955126953125 0.820828125 1.1483701171875 Q 0.820828125 1.14376611328125 0.821814697265625 1.12929638671875 Q 0.82280126953125 1.11482666015625 0.82411669921875 1.09377978515625 Q 0.82543212890625 1.0727329101562502 0.8274052734375 1.0474108886718752 Q 0.82937841796875 1.0220888671875001 0.83069384765625 0.996109130859375 Q 0.83200927734375 0.97012939453125 0.832995849609375 0.9457939453125 Q 0.8339824218749999 0.9214584960937501 0.8339824218749999 0.902384765625 Q 0.83464013671875 0.7583452148437501 0.81227783203125 0.636339111328125 Q 0.78991552734375 0.5143330078125 0.74124462890625 0.4248837890625 Q 0.69257373046875 0.3354345703125 0.615949951171875 0.28511938476562504 Q 0.539326171875 0.23480419921875006 0.43080322265625 0.23480419921875006 Q 0.349904296875 0.23480419921875006 0.288407958984375 0.256837646484375 Q 0.22691162109375 0.2788710937500001 0.1854755859375 0.3150454101562501 Q 0.14403955078125 0.3512197265625001 0.12299267578124999 0.39693090820312504 Q 0.10194580078125 0.4426420898437501 0.10194580078125 0.48999755859375005 Q 0.10194580078125 0.5320913085937501 0.116086669921875 0.5653059082031251 Q 0.1302275390625 0.5985205078125001 0.154891845703125 0.621869384765625 Q 0.17955615234375 0.6452182617187501 0.213099609375 0.6573859863281251 Q 0.24664306640625 0.6695537109375 0.2854482421875 0.6695537109375 Q 0.318333984375 0.6695537109375 0.34530029296875 0.66231884765625 Q 0.37226660156249997 0.655083984375 0.39134033203125 0.6462048339843751 Q 0.4104140625 0.6373256835937501 0.421266357421875 0.629761962890625 Q 0.43211865234374996 0.6221982421875001 0.43343408203125 0.6208828125000001 Q 0.43672265625 0.61759423828125 0.440997802734375 0.6166076660156251 Q 0.44527294921875 0.6156210937500001 0.44921923828125 0.6156210937500001 Q 0.4590849609375 0.6156210937500001 0.46631982421875 0.621869384765625 Q 0.4735546875 0.6281176757812501 0.4735546875 0.6386411132812501 Q 0.4735546875 0.6511376953125001 0.46500439453125 0.65771484375 Q 0.46368896484375 0.6590302734375 0.45053466796874997 0.668567138671875 Q 0.43738037109375 0.67810400390625 0.414031494140625 0.688956298828125 Q 0.39068261718749997 0.69980859375 0.357796875 0.7090166015625001 Q 0.3249111328125 0.718224609375 0.28479052734375 0.718224609375 Q 0.2354619140625 0.718224609375 0.19271044921875 0.7017817382812501 Q 0.149958984375 0.6853388671875 0.11904638671875 0.655083984375 Q 0.0881337890625 0.6248291015625 0.07037548828125 0.583064208984375 Q 0.052617187499999996 0.5412993164062501 0.052617187499999996 0.49065527343750004 Q 0.052617187499999996 0.4340917968750001 0.07695263671875 0.37950146484375 Q 0.1012880859375 0.32491113281250006 0.148972412109375 0.28215966796875 Q 0.19665673828125 0.2394082031250001 0.266703369140625 0.2134284667968751 Q 0.33675 0.1874487304687501 0.428830078125 0.1874487304687501 Q 0.54787646484375 0.1874487304687501 0.633708251953125 0.23907934570312506 Q 0.7195400390625 0.2907099609375001 0.775116943359375 0.38476318359375006 Q 0.83069384765625 0.4788164062500001 0.857331298828125 0.6113459472656251 Q 0.88396875 0.74387548828125 0.88396875 0.9056733398437501 Q 0.88396875 0.9510556640625001 0.88199560546875 0.9993977050781251 Q 0.8800224609375 1.04773974609375 0.876076171875 1.09772607421875 M 1.5258984375 0.6162788085937501 Q 1.5258984375 0.6412719726562501 1.508468994140625 0.658701416015625 Q 1.4910395507812502 0.6761308593750001 1.46604638671875 0.6761308593750001 Q 1.44105322265625 0.6761308593750001 1.4236237792968751 0.658701416015625 Q 1.4061943359375 0.6412719726562501 1.4061943359375 0.6162788085937501 Q 1.4061943359375 0.6037822265625 1.41079833984375 0.592929931640625 Q 1.41540234375 0.58207763671875 1.4236237792968751 0.5738562011718751 Q 1.4318452148437502 0.565634765625 1.4426975097656252 0.5610307617187501 Q 1.4535498046875 0.5564267578125001 1.46604638671875 0.5564267578125001 Q 1.47854296875 0.5564267578125001 1.489395263671875 0.5610307617187501 Q 1.50024755859375 0.565634765625 1.508468994140625 0.5738562011718751 Q 1.5166904296875001 0.58207763671875 1.52129443359375 0.592929931640625 Q 1.5258984375 0.6037822265625 1.5258984375 0.6162788085937501 M 1.4193486328125 1.00169970703125 Q 1.4193486328125 0.9069887695312501 1.4311875 0.8129355468750001 Q 1.4325029296875 0.8037275390625 1.439408935546875 0.796821533203125 Q 1.44631494140625 0.78991552734375 1.45749609375 0.78991552734375 Q 1.46736181640625 0.78991552734375 1.47393896484375 0.7974792480468751 Q 1.48051611328125 0.80504296875 1.48051611328125 0.81490869140625 Q 1.48051611328125 0.81885498046875 1.478871826171875 0.8385864257812501 Q 1.4772275390625 0.85831787109375 1.474925537109375 0.8856130371093751 Q 1.47262353515625 0.9129082031250001 1.470979248046875 0.943491943359375 Q 1.4693349609375002 0.9740756835937501 1.4693349609375002 0.9997265625 Q 1.4693349609375002 1.03458544921875 1.476240966796875 1.0559611816406251 Q 1.48314697265625 1.0773369140625 1.493999267578125 1.08917578125 Q 1.5048515625 1.1010146484375 1.517019287109375 1.1049609375 Q 1.52918701171875 1.1089072265625 1.5403681640625 1.1089072265625 Q 1.5587841796875002 1.1089072265625 1.578515625 1.0957529296875002 Q 1.5982470703125 1.0825986328125001 1.618965087890625 1.0589208984375 Q 1.63968310546875 1.0352431640625 1.66072998046875 1.002028564453125 Q 1.68177685546875 0.96881396484375 1.702166015625 0.9280356445312501 Q 1.70545458984375 0.9214584960937501 1.7113740234375001 0.9178410644531251 Q 1.71729345703125 0.9142236328125001 1.7245283203125 0.9142236328125001 Q 1.7350517578125 0.9142236328125001 1.741957763671875 0.9221162109375001 Q 1.7488637695312501 0.9300087890625001 1.7488637695312501 0.939216796875 Q 1.7488637695312501 0.9457939453125 1.74623291015625 0.9503979492187501 Q 1.73834033203125 0.9655253906250001 1.72650146484375 0.9872299804687501 Q 1.71466259765625 1.0089345703125001 1.69953515625 1.03195458984375 Q 1.6844077148437502 1.054974609375 1.666320556640625 1.0776657714843751 Q 1.6482333984375002 1.10035693359375 1.6278442382812501 1.118444091796875 Q 1.607455078125 1.13653125 1.5850927734375 1.1477124023437502 Q 1.56273046875 1.1588935546875 1.53971044921875 1.1588935546875 Q 1.51011328125 1.1588935546875 1.4877509765625 1.14639697265625 Q 1.465388671875 1.133900390625 1.4499323730468752 1.1128535156250001 Q 1.4344760742187501 1.091806640625 1.426912353515625 1.0631960449218751 Q 1.4193486328125 1.03458544921875 1.4193486328125 1.00169970703125 M 1.48906640625 0.6162788085937501 Q 1.48906640625 0.6070708007812501 1.482160400390625 0.600164794921875 Q 1.47525439453125 0.5932587890625001 1.46604638671875 0.5932587890625001 Q 1.45683837890625 0.5932587890625001 1.45026123046875 0.600164794921875 Q 1.44368408203125 0.6070708007812501 1.44368408203125 0.6162788085937501 Q 1.44368408203125 0.62548681640625 1.45026123046875 0.63206396484375 Q 1.45683837890625 0.6386411132812501 1.46604638671875 0.6386411132812501 Q 1.47525439453125 0.6386411132812501 1.482160400390625 0.63206396484375 Q 1.48906640625 0.62548681640625 1.48906640625 0.6162788085937501 M 2.29213623046875 0.1650864257812501 Q 2.3730351562500003 0.1650864257812501 2.45722265625 0.17988500976562505 Q 2.54141015625 0.1946835937500001 2.62099365234375 0.2249384765625001 Q 2.7005771484375 0.2551933593750001 2.77095263671875 0.300904541015625 Q 2.841328125 0.34661572265625007 2.8939453125 0.40778320312500005 Q 2.9465624999999998 0.46895068359375003 2.977146240234375 0.5459033203125001 Q 3.00772998046875 0.6228559570312501 3.00772998046875 0.7162514648437501 Q 3.00772998046875 0.8096469726562501 2.97484423828125 0.8892304687500001 Q 2.94195849609375 0.96881396484375 2.88276416015625 1.02669287109375 Q 2.82356982421875 1.08457177734375 2.74135546875 1.11745751953125 Q 2.65914111328125 1.1503432617187501 2.56048388671875 1.1503432617187501 Q 2.5137861328125 1.1503432617187501 2.4637998046875 1.143437255859375 Q 2.4138134765625 1.13653125 2.3638271484375 1.1220615234375 Q 2.3138408203125 1.107591796875 2.265498779296875 1.0862160644531251 Q 2.21715673828125 1.06484033203125 2.17308984375 1.0352431640625 Q 2.12113037109375 1.086544921875 2.053056884765625 1.1151555175781251 Q 1.9849833984375 1.14376611328125 1.9093461914062502 1.14376611328125 Q 1.86856787109375 1.14376611328125 1.83305126953125 1.1345581054687501 Q 1.79753466796875 1.12535009765625 1.7715549316406252 1.10824951171875 Q 1.7455751953125 1.0911489257812501 1.730776611328125 1.0668134765625001 Q 1.7159780273437502 1.04247802734375 1.7159780273437502 1.012880859375 Q 1.7159780273437502 0.9872299804687501 1.728803466796875 0.96486767578125 Q 1.74162890625 0.9425053710937501 1.764977783203125 0.92540478515625 Q 1.7883266601562502 0.90830419921875 1.820883544921875 0.8984384765625001 Q 1.8534404296875 0.88857275390625 1.89224560546875 0.88857275390625 Q 2.00668798828125 0.88857275390625 2.16322412109375 0.9727602539062501 Q 2.19216357421875 0.9365859375000001 2.21057958984375 0.8912036132812501 Q 2.23096875 0.8405595703125001 2.242478759765625 0.786955810546875 Q 2.25398876953125 0.7333520507812501 2.262867919921875 0.6800771484375001 Q 2.2717470703125002 0.62680224609375 2.281283935546875 0.5761582031250001 Q 2.2908208007812503 0.5255141601562501 2.3075925292968753 0.4807895507812501 Q 2.3243642578125003 0.4360649414062501 2.351659423828125 0.398904052734375 Q 2.37895458984375 0.36174316406250007 2.423021484375 0.3354345703125 Q 2.4295986328125 0.33214599609375006 2.4348603515625 0.33214599609375006 Q 2.444068359375 0.33214599609375006 2.452289794921875 0.3387231445312501 Q 2.46051123046875 0.3453002929687501 2.46051123046875 0.35713916015625 Q 2.46051123046875 0.37095117187500004 2.4480146484375 0.37818603515625004 Q 2.41315576171875 0.3985751953125001 2.391122314453125 0.4291589355468751 Q 2.3690888671875 0.45974267578125005 2.354619140625 0.49789013671875004 Q 2.3401494140625 0.53603759765625 2.33159912109375 0.5801044921875 Q 2.323048828125 0.62417138671875 2.3151562500000002 0.6721845703125 Q 2.3085791015625 0.7116474609375001 2.3006865234375002 0.7547277832031251 Q 2.2927939453125 0.79780810546875 2.2809550781250003 0.840230712890625 Q 2.2691162109375 0.8826533203125 2.251029052734375 0.9231027832031251 Q 2.2329418945312502 0.96355224609375 2.20663330078125 0.9977534179687501 Q 2.20794873046875 0.9984111328125 2.208277587890625 0.998739990234375 Q 2.2086064453125003 0.99906884765625 2.209921875 0.9997265625 Q 2.29345166015625 1.049712890625 2.38355859375 1.0753637695312501 Q 2.47366552734375 1.1010146484375 2.559826171875 1.1010146484375 Q 2.6532216796875003 1.1010146484375 2.727214599609375 1.07010205078125 Q 2.80120751953125 1.039189453125 2.85250927734375 0.986901123046875 Q 2.90381103515625 0.93461279296875 2.93077734375 0.86489501953125 Q 2.9577436523437504 0.7951772460937501 2.9577436523437504 0.7175668945312501 Q 2.9577436523437504 0.6386411132812501 2.93143505859375 0.570567626953125 Q 2.9051264648437503 0.5024941406250001 2.859415283203125 0.44658837890625 Q 2.8137041015625 0.3906826171875001 2.750892333984375 0.34727343750000006 Q 2.68808056640625 0.30386425781250004 2.615403076171875 0.2745959472656251 Q 2.5427255859375 0.24532763671875002 2.462813232421875 0.22987133789062508 Q 2.3829008789062502 0.21441503906250003 2.30265966796875 0.21441503906250003 Q 2.19479443359375 0.21441503906250003 2.105674072265625 0.23250219726562504 Q 2.0165537109375 0.25058935546875005 1.952426513671875 0.2854482421875001 Q 1.88829931640625 0.32030712890625 1.8527827148437501 0.37095117187500004 Q 1.81726611328125 0.42159521484375007 1.81726611328125 0.4860512695312501 Q 1.81726611328125 0.5228833007812501 1.828118408203125 0.5511650390625 Q 1.838970703125 0.57944677734375 1.855742431640625 0.600164794921875 Q 1.87251416015625 0.6208828125000001 1.89224560546875 0.6353525390625001 Q 1.9119770507812501 0.6498222656250001 1.92907763671875 0.658701416015625 Q 1.94617822265625 0.6675805664062501 1.958345947265625 0.6715268554687501 Q 1.970513671875 0.6754731445312501 1.9724868164062501 0.6761308593750001 Q 1.981037109375 0.67810400390625 1.985969970703125 0.6850100097656251 Q 1.99090283203125 0.691916015625 1.99090283203125 0.7004663085937501 Q 1.99090283203125 0.7116474609375001 1.98301025390625 0.7175668945312501 Q 1.97511767578125 0.7234863281250001 1.96590966796875 0.7234863281250001 Q 1.9527553710937502 0.7234863281250001 1.93302392578125 0.7172380371093751 Q 1.9132924804687501 0.71098974609375 1.8912590332031252 0.6981643066406251 Q 1.8692255859375 0.6853388671875 1.847192138671875 0.665936279296875 Q 1.82515869140625 0.64653369140625 1.807400390625 0.6202250976562501 Q 1.7896420898437502 0.5939165039062501 1.7787897949218752 0.5603730468750001 Q 1.7679375000000002 0.5268295898437501 1.7679375000000002 0.4860512695312501 Q 1.7679375000000002 0.4117294921875001 1.805756103515625 0.35220629882812504 Q 1.84357470703125 0.2926831054687501 1.912634765625 0.25124707031250004 Q 1.9816948242187502 0.2098110351562501 2.078050048828125 0.1874487304687501 Q 2.1744052734375 0.1650864257812501 2.29213623046875 0.1650864257812501 M 2.12770751953125 1.01025 Q 2.05930517578125 0.9740756835937501 2.0007685546875003 0.95565966796875 Q 1.9422319335937501 0.9372436523437501 1.89356103515625 0.9372436523437501 Q 1.8659370117187501 0.9372436523437501 1.842588134765625 0.943491943359375 Q 1.8192392578125 0.9497402343750001 1.802138671875 0.9602636718750001 Q 1.7850380859375001 0.970787109375 1.7751723632812502 0.98459912109375 Q 1.765306640625 0.9984111328125 1.765306640625 1.0135385742187502 Q 1.765306640625 1.02800830078125 1.7741857910156251 1.04247802734375 Q 1.78306494140625 1.05694775390625 1.801152099609375 1.0681289062500001 Q 1.8192392578125 1.07931005859375 1.84620556640625 1.086544921875 Q 1.8731718750000002 1.09377978515625 1.9093461914062502 1.09377978515625 Q 1.9711713867187501 1.09377978515625 2.0274060058593752 1.0717463378906251 Q 2.083640625 1.049712890625 2.12770751953125 1.01025 M 3.15768896484375 1.060236328125 Q 3.1715009765625 1.07931005859375 3.19320556640625 1.090820068359375 Q 3.21491015625 1.102330078125 3.24648046875 1.102330078125 Q 3.27870849609375 1.102330078125 3.30501708984375 1.086873779296875 Q 3.33132568359375 1.07141748046875 3.3530302734375 1.04642431640625 Q 3.37473486328125 1.02143115234375 3.39183544921875 0.9905185546875 Q 3.40893603515625 0.9596059570312501 3.4227480468750002 0.9286933593750001 Q 3.42603662109375 0.9214584960937501 3.4319560546875 0.9178410644531251 Q 3.43787548828125 0.9142236328125001 3.4451103515625 0.9142236328125001 Q 3.4562915039062503 0.9142236328125001 3.463197509765625 0.9221162109375001 Q 3.470103515625 0.9300087890625001 3.470103515625 0.939216796875 Q 3.470103515625 0.9425053710937501 3.46944580078125 0.9448073730468751 Q 3.4687880859375 0.947109375 3.46747265625 0.9497402343750001 Q 3.42209033203125 1.049712890625 3.368486572265625 1.10035693359375 Q 3.3148828125 1.1510009765625 3.24713818359375 1.15231640625 Q 3.20372900390625 1.15231640625 3.17215869140625 1.135544677734375 Q 3.14058837890625 1.1187729492187501 3.12019921875 1.0921354980468752 Q 3.09981005859375 1.0654980468750002 3.0899443359375 1.03195458984375 Q 3.08007861328125 0.9984111328125 3.08007861328125 0.96486767578125 Q 3.08007861328125 0.93132421875 3.088300048828125 0.90304248046875 Q 3.096521484375 0.8747607421875001 3.111977783203125 0.8537138671875 Q 3.12743408203125 0.8326669921875001 3.148809814453125 0.820828125 Q 3.170185546875 0.8089892578125001 3.19583642578125 0.8089892578125001 Q 3.2109638671875 0.8089892578125001 3.225762451171875 0.815237548828125 Q 3.24056103515625 0.8214858398437501 3.25239990234375 0.832995849609375 Q 3.26423876953125 0.8445058593750001 3.2714736328125 0.86094873046875 Q 3.27870849609375 0.8773916015625001 3.27870849609375 0.8984384765625001 Q 3.27870849609375 0.92540478515625 3.26950048828125 0.94908251953125 Q 3.26029248046875 0.9727602539062501 3.244178466796875 0.9931494140625 Q 3.228064453125 1.0135385742187502 3.2057021484375 1.0306391601562501 Q 3.1833398437500002 1.04773974609375 3.15768896484375 1.060236328125 M 3.13795751953125 1.01748486328125 Q 3.1583466796875 1.0089345703125001 3.175118408203125 0.9957802734375001 Q 3.19189013671875 0.9826259765625001 3.20372900390625 0.9668408203125001 Q 3.21556787109375 0.9510556640625001 3.22214501953125 0.9336262207031251 Q 3.22872216796875 0.91619677734375 3.22872216796875 0.8984384765625001 Q 3.22872216796875 0.87870703125 3.2188564453125 0.868512451171875 Q 3.20899072265625 0.85831787109375 3.19583642578125 0.85831787109375 Q 3.178078125 0.85831787109375 3.16558154296875 0.86818359375 Q 3.1530849609375 0.8780493164062501 3.1451923828125 0.89383447265625 Q 3.1372998046875002 0.90961962890625 3.133682373046875 0.929022216796875 Q 3.1300649414062502 0.9484248046875001 3.1300649414062502 0.9674985351562501 Q 3.1300649414062502 0.97933740234375 3.132366943359375 0.99249169921875 Q 3.1346689453125 1.00564599609375 3.13795751953125 1.01748486328125 M 3.49575439453125 0.8892304687500001 Q 3.49180810546875 0.8997539062500001 3.486217529296875 0.9129082031250001 Q 3.480626953125 0.9260625 3.47339208984375 0.9405322265625 Q 3.46747265625 0.9517133789062501 3.461224365234375 0.957961669921875 Q 3.45497607421875 0.9642099609375001 3.4451103515625 0.9642099609375001 Q 3.43392919921875 0.9642099609375001 3.42735205078125 0.957303955078125 Q 3.42077490234375 0.9503979492187501 3.42077490234375 0.9411899414062501 Q 3.42077490234375 0.9379013671875001 3.4214326171875 0.935599365234375 Q 3.42209033203125 0.93329736328125 3.42472119140625 0.9280356445312501 Q 3.44182177734375 0.89514990234375 3.450043212890625 0.870485595703125 Q 3.4582646484375 0.8458212890625001 3.4635263671875 0.81885498046875 Q 3.45892236328125 0.8037275390625 3.4569492187499997 0.7932041015625 Q 3.45497607421875 0.7826806640625 3.45497607421875 0.77149951171875 Q 3.45497607421875 0.7497949218750001 3.4641840820312497 0.736311767578125 Q 3.47339208984375 0.72282861328125 3.4898349609375 0.72282861328125 Q 3.50496240234375 0.72282861328125 3.513841552734375 0.7359829101562501 Q 3.522720703125 0.7491372070312501 3.522720703125 0.7682109375000001 Q 3.522720703125 0.778734375 3.52074755859375 0.7892578125 Q 3.5187744140625 0.7997812500000001 3.51548583984375 0.8155664062500001 Q 3.53061328125 0.8530561523437501 3.54574072265625 0.8819956054687501 Q 3.5608681640624997 0.9109350585937501 3.5727070312499998 0.934941650390625 Q 3.5845458984375 0.9589482421875001 3.5921096191406248 0.9799951171875001 Q 3.5996733398437497 1.0010419921875 3.5996733398437497 1.0220888671875001 Q 3.5996733398437497 1.049712890625 3.5884921875 1.0747060546875 Q 3.57731103515625 1.09969921875 3.55166015625 1.1167998046875 Q 3.55494873046875 1.11745751953125 3.5582373046874998 1.11745751953125 Q 3.56152587890625 1.11745751953125 3.564814453125 1.11745751953125 Q 3.60230419921875 1.11745751953125 3.63387451171875 1.10035693359375 Q 3.66544482421875 1.08325634765625 3.690766845703125 1.0559611816406251 Q 3.7160888671875 1.028666015625 3.7358203125 0.995451416015625 Q 3.7555517578125 0.96223681640625 3.770021484375 0.9293510742187501 Q 3.7765986328125 0.9142236328125001 3.7884374999999997 0.9142236328125001 Q 3.79961865234375 0.9142236328125001 3.805866943359375 0.9221162109375001 Q 3.8121152343749998 0.9300087890625001 3.8121152343749998 0.939216796875 Q 3.8121152343749998 0.9444785156250001 3.81014208984375 0.94908251953125 Q 3.8029072265624997 0.9668408203125001 3.791397216796875 0.9895319824218751 Q 3.77988720703125 1.01222314453125 3.7637731933593748 1.036229736328125 Q 3.7476591796875 1.060236328125 3.7266123046875 1.08325634765625 Q 3.7055654296875 1.1062763671875 3.6795856933593747 1.124363525390625 Q 3.65360595703125 1.14245068359375 3.622693359375 1.153302978515625 Q 3.59178076171875 1.1641552734375 3.55494873046875 1.1641552734375 Q 3.5108818359375 1.1641552734375 3.473063232421875 1.148698974609375 Q 3.4352446289062497 1.1332426757812502 3.41156689453125 1.09772607421875 Q 3.40762060546875 1.091806640625 3.40762060546875 1.0852294921875 Q 3.40762060546875 1.0753637695312501 3.415184326171875 1.067800048828125 Q 3.422748046875 1.060236328125 3.4326137695312497 1.060236328125 Q 3.44313720703125 1.060236328125 3.4503720703125 1.06747119140625 Q 3.45102978515625 1.06878662109375 3.45497607421875 1.0717463378906251 Q 3.45892236328125 1.0747060546875 3.464512939453125 1.078323486328125 Q 3.470103515625 1.08194091796875 3.477667236328125 1.08457177734375 Q 3.48523095703125 1.08720263671875 3.4931235351562497 1.08720263671875 Q 3.50890869140625 1.08720263671875 3.5197609863281247 1.08062548828125 Q 3.53061328125 1.0740483398437501 3.5371904296875 1.0645114746093751 Q 3.5437675781249998 1.054974609375 3.546727294921875 1.044122314453125 Q 3.54968701171875 1.03327001953125 3.54968701171875 1.02537744140625 Q 3.54968701171875 1.0089345703125001 3.54442529296875 0.99249169921875 Q 3.53916357421875 0.976048828125 3.530942138671875 0.9596059570312501 Q 3.522720703125 0.9431630859375001 3.513183837890625 0.9257336425781251 Q 3.50364697265625 0.90830419921875 3.49575439453125 0.8892304687500001 M 3.87196728515625 0.6162788085937501 Q 3.87196728515625 0.6412719726562501 3.8545378417968745 0.658701416015625 Q 3.8371083984374996 0.6761308593750001 3.8121152343749998 0.6761308593750001 Q 3.7871220703125 0.6761308593750001 3.7696926269531246 0.658701416015625 Q 3.7522631835937497 0.6412719726562501 3.7522631835937497 0.6162788085937501 Q 3.7522631835937497 0.6037822265625 3.7568671874999997 0.592929931640625 Q 3.7614711914062497 0.58207763671875 3.7696926269531246 0.5738562011718751 Q 3.7779140625 0.565634765625 3.7887663574218746 0.5610307617187501 Q 3.79961865234375 0.5564267578125001 3.8121152343749998 0.5564267578125001 Q 3.8246118164062497 0.5564267578125001 3.835464111328125 0.5610307617187501 Q 3.8463164062499997 0.565634765625 3.8545378417968745 0.5738562011718751 Q 3.86275927734375 0.58207763671875 3.86736328125 0.592929931640625 Q 3.87196728515625 0.6037822265625 3.87196728515625 0.6162788085937501 M 3.76541748046875 1.00169970703125 Q 3.76541748046875 0.9069887695312501 3.77725634765625 0.8129355468750001 Q 3.7785717773437497 0.8037275390625 3.785477783203125 0.796821533203125 Q 3.7923837890625 0.78991552734375 3.8035649414062496 0.78991552734375 Q 3.8134306640624995 0.78991552734375 3.8200078124999997 0.7974792480468751 Q 3.8265849609375 0.80504296875 3.8265849609375 0.81490869140625 Q 3.8265849609375 0.81885498046875 3.8249406738281246 0.8385864257812501 Q 3.82329638671875 0.85831787109375 3.820994384765625 0.8856130371093751 Q 3.8186923828125 0.9129082031250001 3.8170480957031248 0.943491943359375 Q 3.8154038085937496 0.9740756835937501 3.8154038085937496 0.9997265625 Q 3.8154038085937496 1.03458544921875 3.8223098144531247 1.0559611816406251 Q 3.8292158203124997 1.0773369140625 3.8400681152343745 1.08917578125 Q 3.8509204101562498 1.1010146484375 3.8630881347656247 1.1049609375 Q 3.8752558593749997 1.1089072265625 3.88643701171875 1.1089072265625 Q 3.9048530273437496 1.1089072265625 3.9245844726562495 1.0957529296875002 Q 3.94431591796875 1.0825986328125001 3.9650339355468747 1.0589208984375 Q 3.985751953125 1.0352431640625 4.0067988281249995 1.002028564453125 Q 4.027845703125 0.96881396484375 4.04823486328125 0.9280356445312501 Q 4.051523437499999 0.9214584960937501 4.05744287109375 0.9178410644531251 Q 4.0633623046875 0.9142236328125001 4.070597167968749 0.9142236328125001 Q 4.08112060546875 0.9142236328125001 4.088026611328125 0.9221162109375001 Q 4.094932617187499 0.9300087890625001 4.094932617187499 0.939216796875 Q 4.094932617187499 0.9457939453125 4.0923017578125 0.9503979492187501 Q 4.0844091796874995 0.9655253906250001 4.0725703125 0.9872299804687501 Q 4.060731445312499 1.0089345703125001 4.0456040039062495 1.03195458984375 Q 4.0304765625 1.054974609375 4.012389404296875 1.0776657714843751 Q 3.9943022460937496 1.10035693359375 3.9739130859375 1.118444091796875 Q 3.9535239257812496 1.13653125 3.9311616210937497 1.1477124023437502 Q 3.90879931640625 1.1588935546875 3.8857792968749996 1.1588935546875 Q 3.8561821289062497 1.1588935546875 3.83381982421875 1.14639697265625 Q 3.81145751953125 1.133900390625 3.7960012207031246 1.1128535156250001 Q 3.780544921875 1.091806640625 3.772981201171875 1.0631960449218751 Q 3.76541748046875 1.03458544921875 3.76541748046875 1.00169970703125 M 3.8351352539062495 0.6162788085937501 Q 3.8351352539062495 0.6070708007812501 3.828229248046875 0.600164794921875 Q 3.8213232421875 0.5932587890625001 3.8121152343749998 0.5932587890625001 Q 3.8029072265624997 0.5932587890625001 3.7963300781249996 0.600164794921875 Q 3.7897529296875 0.6070708007812501 3.7897529296875 0.6162788085937501 Q 3.7897529296875 0.62548681640625 3.7963300781249996 0.63206396484375 Q 3.8029072265624997 0.6386411132812501 3.8121152343749998 0.6386411132812501 Q 3.8213232421875 0.6386411132812501 3.828229248046875 0.63206396484375 Q 3.8351352539062495 0.62548681640625 3.8351352539062495 0.6162788085937501" fill="#ff6b00" fill-rule="nonzero"></path></g><g><path d=" M 7.676249935579611 0.4419843750000001 Q 7.674276791048361 0.45119238281250007 7.667699642610861 0.4564541015625001 Q 7.661122494173361 0.4617158203125 7.653229916048361 0.4617158203125 Q 7.641391048860861 0.4617158203125 7.634156185579611 0.4541520996093751 Q 7.626921322298362 0.44658837890625 7.626921322298362 0.43672265625000006 Q 7.626921322298362 0.4268569335937501 7.628894466829611 0.4173200683593751 Q 7.630867611360861 0.40778320312500005 7.630867611360861 0.3985751953125001 Q 7.630867611360861 0.35056201171875 7.601270443392111 0.31241455078125 Q 7.571673275423361 0.27426708984375003 7.517411800813986 0.24828735351562503 Q 7.4631503262046115 0.22230761718750003 7.3855399746421115 0.20849560546875012 Q 7.307929623079611 0.1946835937500001 7.212560970735861 0.1946835937500001 Q 7.139554623079611 0.1946835937500001 7.065561703157736 0.20422045898437502 Q 6.991568783235861 0.21375732421875004 6.923495296907737 0.23184448242187505 Q 6.855421810579611 0.24993164062500006 6.796227474642111 0.27722680664062505 Q 6.737033138704611 0.30452197265625003 6.693295101595236 0.3403674316406251 Q 6.649557064485861 0.3762128906250001 6.624563900423361 0.41995092773437503 Q 6.599570736360861 0.4636889648437501 6.599570736360861 0.5156484375000001 Q 6.599570736360861 0.5557690429687501 6.617000179720236 0.5863527832031251 Q 6.634429623079611 0.6169365234375 6.664684505892112 0.639627685546875 Q 6.694939388704611 0.66231884765625 6.736046566438986 0.6784328613281251 Q 6.777153744173361 0.6945468750000001 6.825166927767111 0.7053991699218751 Q 6.8731801113608615 0.7162514648437501 6.925139584017111 0.7231574707031251 Q 6.977099056673361 0.7300634765625 7.029716244173361 0.7346674804687501 L 7.131004330110861 0.7432177734375001 Q 7.2066415371421115 0.7497949218750001 7.266493587923361 0.7570297851562501 Q 7.326345638704611 0.7642646484375001 7.371727962923361 0.7754458007812501 Q 7.447365169954611 0.7945195312500001 7.483539486360861 0.8300361328125001 Q 7.519713802767111 0.865552734375 7.519713802767111 0.9247470703125 Q 7.519713802767111 0.9819682617187501 7.488143490267111 1.02537744140625 Q 7.456573177767111 1.06878662109375 7.401982845735861 1.0983837890625001 Q 7.347392513704611 1.12798095703125 7.2743861660483615 1.1431083984375001 Q 7.201379818392111 1.15823583984375 7.117850033235861 1.15823583984375 Q 7.027085384798362 1.15823583984375 6.958354183626486 1.146068115234375 Q 6.889622982454611 1.133900390625 6.843254085970236 1.119101806640625 Q 6.796885189485861 1.1043032226562501 6.772549740267111 1.091806640625 Q 6.748214291048361 1.07931005859375 6.746241146517111 1.07799462890625 Q 6.734402279329611 1.07141748046875 6.734402279329611 1.05694775390625 Q 6.734402279329611 1.0457666015625 6.7422948574546115 1.0388605957031252 Q 6.750187435579611 1.03195458984375 6.759395443392111 1.03195458984375 Q 6.7666303066733615 1.03195458984375 6.772549740267111 1.03590087890625 Q 6.773207455110861 1.03590087890625 6.795240902376486 1.0474108886718752 Q 6.817274349642111 1.0589208984375 6.8610123867514865 1.0727329101562502 Q 6.904750423860861 1.086544921875 6.969206478548362 1.09772607421875 Q 7.033662533235861 1.1089072265625 7.119165462923361 1.1089072265625 Q 7.204010677767111 1.1089072265625 7.269124447298362 1.09509521484375 Q 7.334238216829611 1.0812832031250001 7.3786339687827365 1.056618896484375 Q 7.423029720735861 1.03195458984375 7.445720882845237 0.998739990234375 Q 7.468412044954611 0.9655253906250001 7.468412044954611 0.9267202148437501 Q 7.468412044954611 0.9037001953125001 7.460190609407736 0.8869284667968751 Q 7.451969173860861 0.8701567382812501 7.437499447298361 0.8579890136718751 Q 7.423029720735861 0.8458212890625001 7.4029694180014864 0.8372709960937501 Q 7.382909115267111 0.8287207031250001 7.359231380892111 0.8228012695312501 Q 7.334238216829611 0.81622412109375 7.305627621126487 0.8116201171875 Q 7.277017025423361 0.8070161132812501 7.246762142610861 0.8037275390625 Q 7.2165072597983615 0.80043896484375 7.185923519563986 0.79780810546875 Q 7.155339779329611 0.7951772460937501 7.125742611360861 0.7925463867187501 L 7.024454525423361 0.7839960937500001 Q 6.904750423860861 0.77413037109375 6.815630062532736 0.7534123535156251 Q 6.726509701204611 0.7326943359375 6.667315365267111 0.700137451171875 Q 6.608121029329611 0.6675805664062501 6.578523861360861 0.6221982421875001 Q 6.5489266933921115 0.5768159179687501 6.5489266933921115 0.5163061523437501 Q 6.5489266933921115 0.45448095703125 6.576879574251486 0.40285034179687507 Q 6.604832455110861 0.3512197265625001 6.6531744961264865 0.30978369140625006 Q 6.701516537142111 0.2683476562500001 6.766301449251486 0.23776391601562508 Q 6.831086361360861 0.20718017578125003 6.904750423860861 0.1867910156250001 Q 6.978414486360861 0.16640185546875008 7.057340267610861 0.15620727539062507 Q 7.136266048860861 0.14601269531250005 7.212560970735861 0.14601269531250005 Q 7.307929623079611 0.14601269531250005 7.3786339687827365 0.15752270507812505 Q 7.449338314485861 0.16903271484375004 7.4996535000327365 0.18711987304687505 Q 7.549968685579611 0.20520703125000006 7.582196712923361 0.22822705078125005 Q 7.614424740267111 0.25124707031250004 7.634156185579611 0.27360937500000004 Q 7.6808539394858615 0.3281997070312501 7.6808539394858615 0.3979174804687501 Q 7.6808539394858615 0.4209375000000001 7.676249935579611 0.4419843750000001 M 7.759779720735861 1.073390625 Q 7.770303158235862 1.05168603515625 7.784115169954611 1.0257062988281251 Q 7.797927181673361 0.9997265625 7.813712337923361 0.973089111328125 Q 7.829497494173362 0.94645166015625 7.846926937532737 0.92014306640625 Q 7.8643563808921115 0.89383447265625 7.883430111360862 0.8701567382812501 Q 7.902503841829612 0.8471367187500001 7.921906429720236 0.8369421386718751 Q 7.941309017610862 0.82674755859375 7.958409603548361 0.82674755859375 Q 7.992610775423362 0.82674755859375 8.009053646517112 0.8517407226562501 Q 8.025496517610861 0.8767338867187501 8.025496517610861 0.9135659179687501 Q 8.025496517610861 0.9221162109375001 8.024509945345237 0.934283935546875 Q 8.02352337307961 0.94645166015625 8.022536800813986 0.9602636718750001 Q 8.021550228548362 0.9740756835937501 8.020563656282736 0.988216552734375 Q 8.019577084017111 1.002357421875 8.019577084017111 1.0148540039062501 Q 8.019577084017111 1.0306391601562501 8.021221371126487 1.0451088867187501 Q 8.022865658235862 1.0595786132812501 8.027469662142112 1.0704309082031251 Q 8.032073666048362 1.0812832031250001 8.040623959017111 1.087531494140625 Q 8.049174251985862 1.09377978515625 8.062986263704612 1.09377978515625 Q 8.087979427767111 1.09377978515625 8.111657162142112 1.074377197265625 Q 8.135334896517112 1.054974609375 8.155395199251487 1.028337158203125 Q 8.175455501985862 1.00169970703125 8.190254085970237 0.9740756835937501 Q 8.205052669954611 0.94645166015625 8.21228753323586 0.9293510742187501 Q 8.215576107454611 0.9221162109375001 8.221824398470236 0.918169921875 Q 8.228072689485861 0.9142236328125001 8.235307552767111 0.9142236328125001 Q 8.246488705110862 0.9142236328125001 8.253394710970236 0.922445068359375 Q 8.260300716829612 0.93066650390625 8.260300716829612 0.93987451171875 Q 8.260300716829612 0.9444785156250001 8.258327572298361 0.94908251953125 Q 8.255696712923362 0.95434423828125 8.247804134798361 0.970787109375 Q 8.239911556673361 0.9872299804687501 8.227086117220237 1.008605712890625 Q 8.214260677767111 1.0299814453125 8.19716009182961 1.053988037109375 Q 8.180059505892112 1.07799462890625 8.159341488313986 1.09772607421875 Q 8.138623470735862 1.11745751953125 8.114616878938987 1.13061181640625 Q 8.09061028714211 1.14376611328125 8.064301693392112 1.14376611328125 Q 8.034704525423361 1.14376611328125 8.016288509798361 1.1322561035156251 Q 7.997872494173362 1.12074609375 7.987349056673361 1.1020012207031251 Q 7.976825619173361 1.08325634765625 7.9732081875327365 1.060565185546875 Q 7.969590755892112 1.0378740234375001 7.969590755892112 1.0148540039062501 Q 7.969590755892112 1.0049882812500002 7.970577328157736 0.99249169921875 Q 7.971563900423361 0.9799951171875001 7.9732081875327365 0.9661831054687501 Q 7.974852474642112 0.9523710937500001 7.975839046907737 0.93855908203125 Q 7.976825619173361 0.9247470703125 7.976825619173361 0.9122504882812501 Q 7.976825619173361 0.8912036132812501 7.970248470735862 0.883639892578125 Q 7.963671322298362 0.8760761718750001 7.958409603548361 0.8760761718750001 Q 7.947886166048361 0.8760761718750001 7.9344030117514865 0.8882438964843751 Q 7.920919857454612 0.9004116210937501 7.906121273470236 0.92014306640625 Q 7.891322689485862 0.93987451171875 7.875866390657737 0.964538818359375 Q 7.860410091829611 0.9892031250000001 7.846926937532737 1.0135385742187502 Q 7.833443783235862 1.0378740234375001 7.821933773470237 1.059907470703125 Q 7.810423763704612 1.08194091796875 7.803846615267111 1.09641064453125 Q 7.790692318392112 1.12403466796875 7.7775380215171115 1.133571533203125 Q 7.764383724642111 1.1431083984375001 7.750571712923361 1.1431083984375001 Q 7.731497982454611 1.1431083984375001 7.719987972688987 1.131598388671875 Q 7.708477962923362 1.1200883789062501 7.708477962923362 1.09904150390625 Q 7.708477962923362 1.0944375 7.7097933926108615 1.080954345703125 Q 7.711108822298361 1.06747119140625 7.713081966829612 1.0487263183593751 Q 7.715055111360861 1.0299814453125 7.717028255892112 1.00827685546875 Q 7.719001400423362 0.986572265625 7.720974544954611 0.965196533203125 Q 7.722947689485862 0.9438208007812501 7.7242631191733615 0.92540478515625 Q 7.725578548860861 0.9069887695312501 7.725578548860861 0.8944921875 Q 7.725578548860861 0.8780493164062501 7.7242631191733615 0.8629218750000001 Q 7.722947689485862 0.8477944335937501 7.719001400423362 0.8445058593750001 Q 7.713081966829612 0.8464790039062501 7.697954525423362 0.869170166015625 Q 7.682827084017111 0.8918613281250001 7.659149349642112 0.94908251953125 Q 7.655860775423362 0.9563173828125 7.649283626985862 0.9602636718750001 Q 7.642706478548361 0.9642099609375001 7.635471615267112 0.9642099609375001 Q 7.624290462923361 0.9642099609375001 7.6177133144858615 0.9566462402343751 Q 7.611136166048362 0.94908251953125 7.611136166048362 0.939216796875 Q 7.611136166048362 0.93461279296875 7.6131093105796115 0.9293510742187501 Q 7.642706478548361 0.8589755859375001 7.6686862148764865 0.825760986328125 Q 7.694665951204612 0.7925463867187501 7.720316830110861 0.7925463867187501 Q 7.735444271517111 0.7925463867187501 7.745967709017112 0.800110107421875 Q 7.756491146517112 0.807673828125 7.762739437532736 0.8201704101562501 Q 7.768987728548361 0.8326669921875001 7.771947445345236 0.8477944335937501 Q 7.774907162142111 0.8629218750000001 7.774907162142111 0.87870703125 Q 7.774907162142111 0.8905458984375001 7.773262875032737 0.9155390625000001 Q 7.771618587923362 0.9405322265625 7.768987728548361 0.9691428222656251 Q 7.766356869173362 0.9977534179687501 7.764054867220237 1.02603515625 Q 7.761752865267112 1.05431689453125 7.759779720735861 1.073390625 M 8.721358822298361 0.94908251953125 Q 8.71872796292336 0.95434423828125 8.710506527376486 0.9711159667968751 Q 8.70228509182961 0.9878876953125001 8.689459652376486 1.00959228515625 Q 8.67663421292336 1.031296875 8.65953362698586 1.054974609375 Q 8.64243304104836 1.07865234375 8.62138616604836 1.0983837890625001 Q 8.60033929104836 1.118115234375 8.57600384182961 1.1309406738281251 Q 8.55166839261086 1.14376611328125 8.524702084017111 1.14376611328125 Q 8.486554623079611 1.14376611328125 8.460574886751486 1.1194306640625 Q 8.43459515042336 1.09509521484375 8.422756283235861 1.0582631835937502 Q 8.40039397854836 1.0957529296875002 8.369481380892111 1.117786376953125 Q 8.33856878323586 1.13981982421875 8.30765618557961 1.13981982421875 Q 8.28332073636086 1.13981982421875 8.26358929104836 1.1309406738281251 Q 8.24385784573586 1.1220615234375 8.23004583401711 1.105947509765625 Q 8.21623382229836 1.0898334960937501 8.208670101595235 1.0681289062500001 Q 8.20110638089211 1.04642431640625 8.20110638089211 1.0207734375 Q 8.20110638089211 0.9694716796875 8.218535824251486 0.9303376464843751 Q 8.23596526761086 0.8912036132812501 8.262931576204611 0.86489501953125 Q 8.28989788479836 0.8385864257812501 8.322454769563986 0.8254321289062501 Q 8.35501165432961 0.81227783203125 8.38526653714211 0.81227783203125 Q 8.40565569729836 0.81227783203125 8.422756283235861 0.8178684082031251 Q 8.439856869173362 0.823458984375 8.452024593782737 0.8300361328125001 Q 8.464192318392112 0.83661328125 8.47076946682961 0.8422038574218751 Q 8.47734661526711 0.8477944335937501 8.47800433011086 0.8484521484375 Q 8.485239193392111 0.85700244140625 8.485239193392111 0.8662104492187501 Q 8.485239193392111 0.8760761718750001 8.47800433011086 0.883639892578125 Q 8.47076946682961 0.8912036132812501 8.460903744173361 0.8912036132812501 Q 8.450380306673361 0.8912036132812501 8.44314544339211 0.8839687500000001 Q 8.44183001370461 0.8826533203125 8.43722600979836 0.879035888671875 Q 8.43262200589211 0.87541845703125 8.42472942776711 0.87147216796875 Q 8.416836849642111 0.8675258789062501 8.405984554720236 0.864566162109375 Q 8.39513225979836 0.8616064453125001 8.38132024807961 0.8616064453125001 Q 8.36093108792336 0.8616064453125001 8.33791106839211 0.870814453125 Q 8.314891048860861 0.8800224609375 8.29581731839211 0.899425048828125 Q 8.276743587923361 0.91882763671875 8.263918148470236 0.9480959472656251 Q 8.251092709017112 0.9773642578125 8.251092709017112 1.01748486328125 Q 8.251092709017112 1.0299814453125 8.253723568392111 1.042806884765625 Q 8.25635442776711 1.05563232421875 8.262931576204611 1.06615576171875 Q 8.26950872464211 1.07667919921875 8.28068987698586 1.08325634765625 Q 8.291871029329611 1.0898334960937501 8.30831390042336 1.0898334960937501 Q 8.32015276761086 1.0898334960937501 8.335609066438986 1.08194091796875 Q 8.351065365267111 1.0740483398437501 8.365206234407736 1.05760546875 Q 8.37934710354836 1.04116259765625 8.390857113313986 1.0161694335937501 Q 8.40236712307961 0.99117626953125 8.40697112698586 0.9569750976562501 Q 8.40828655667336 0.94776708984375 8.415521419954612 0.9415187988281251 Q 8.422756283235861 0.9352705078125001 8.43262200589211 0.9352705078125001 Q 8.44183001370461 0.9352705078125001 8.448736019563986 0.9425053710937501 Q 8.45564202542336 0.9497402343750001 8.456299740267111 0.9589482421875001 Q 8.45695745511086 0.9714448242187501 8.45893059964211 0.994135986328125 Q 8.460903744173361 1.0168271484375 8.467809750032735 1.039189453125 Q 8.474715755892111 1.0615517578125 8.488527767610861 1.07799462890625 Q 8.50233977932961 1.0944375 8.526675228548362 1.0944375 Q 8.54246038479836 1.0944375 8.557916683626486 1.08588720703125 Q 8.573372982454611 1.0773369140625 8.588171566438985 1.0631960449218751 Q 8.60297015042336 1.04905517578125 8.616453304720237 1.030968017578125 Q 8.629936459017111 1.012880859375 8.64111761136086 0.9944648437500001 Q 8.65229876370461 0.976048828125 8.66084905667336 0.9589482421875001 Q 8.669399349642111 0.94184765625 8.675318783235861 0.9293510742187501 Q 8.678607357454611 0.9221162109375001 8.684855648470236 0.918169921875 Q 8.69110393948586 0.9142236328125001 8.698338802767111 0.9142236328125001 Q 8.70951995511086 0.9142236328125001 8.716425960970236 0.922445068359375 Q 8.72333196682961 0.93066650390625 8.72333196682961 0.93987451171875 Q 8.72333196682961 0.9444785156250001 8.721358822298361 0.94908251953125 M 9.10612200589211 0.9503979492187501 Q 9.102175716829612 0.9576328125 9.092638851595236 0.97670654296875 Q 9.08310198636086 0.9957802734375001 9.066987972688986 1.0197868652343751 Q 9.05087395901711 1.0437934570312501 9.028511654329611 1.0694443359375 Q 9.006149349642111 1.09509521484375 8.977209896517111 1.1164709472656251 Q 8.948270443392111 1.1378466796875 8.912424984407735 1.15165869140625 Q 8.876579525423361 1.165470703125 8.83448577542336 1.165470703125 Q 8.79699602932961 1.165470703125 8.76805657620461 1.151987548828125 Q 8.73911712307961 1.13850439453125 8.71872796292336 1.1138400878906252 Q 8.698338802767111 1.08917578125 8.687815365267111 1.05563232421875 Q 8.677291927767111 1.0220888671875001 8.677291927767111 0.9813105468750001 Q 8.677291927767111 0.94184765625 8.68847308011086 0.9073176269531251 Q 8.699654232454611 0.87278759765625 8.719056820345235 0.8471367187500001 Q 8.738459408235862 0.8214858398437501 8.764110287142111 0.8066872558593751 Q 8.789761166048361 0.791888671875 8.818700619173361 0.791888671875 Q 8.840405209017112 0.791888671875 8.858163509798361 0.7994523925781251 Q 8.87592181057961 0.8070161132812501 8.888089535188985 0.8195126953125 Q 8.90025725979836 0.8320092773437501 8.907163265657736 0.8471367187500001 Q 8.91406927151711 0.8622641601562501 8.91406927151711 0.8773916015625001 Q 8.91406927151711 0.8918613281250001 8.910451839876487 0.90435791015625 Q 8.906834408235861 0.9168544921875 8.901243832063987 0.9263913574218751 Q 8.89565325589211 0.9359282226562501 8.88841839261086 0.9415187988281251 Q 8.881183529329611 0.947109375 8.873948666048362 0.947109375 Q 8.862767513704611 0.947109375 8.855861507845235 0.93987451171875 Q 8.848955501985861 0.9326396484375 8.848955501985861 0.9221162109375001 Q 8.848955501985861 0.9168544921875 8.851257503938985 0.9129082031250001 Q 8.853559505892111 0.9089619140625 8.856519222688986 0.904686767578125 Q 8.85947893948586 0.9004116210937501 8.861780941438987 0.8941633300781251 Q 8.864082943392111 0.8879150390625 8.864082943392111 0.8780493164062501 Q 8.864082943392111 0.8642373046875 8.851257503938985 0.8530561523437501 Q 8.838432064485861 0.841875 8.818700619173361 0.841875 Q 8.800284603548361 0.841875 8.783512875032736 0.8530561523437501 Q 8.766741146517111 0.8642373046875 8.75424456448586 0.882982177734375 Q 8.74174798245461 0.90172705078125 8.734184261751485 0.927049072265625 Q 8.72662054104836 0.9523710937500001 8.72662054104836 0.9806528320312501 Q 8.72662054104836 1.0076191406250001 8.733197689485861 1.03195458984375 Q 8.739774837923362 1.0562900390625 8.75292913479836 1.075034912109375 Q 8.76608343167336 1.09377978515625 8.786143734407736 1.1049609375 Q 8.80620403714211 1.11614208984375 8.833828060579611 1.11614208984375 Q 8.869344662142112 1.11614208984375 8.899599544954611 1.103316650390625 Q 8.929854427767111 1.0904912109375 8.95484759182961 1.070759765625 Q 8.979840755892111 1.0510283203125002 8.99891448636086 1.027679443359375 Q 9.017988216829611 1.00433056640625 9.031471371126486 0.9836125488281251 Q 9.04495452542336 0.96289453125 9.052518246126485 0.9474382324218751 Q 9.06008196682961 0.93198193359375 9.06139739651711 0.9280356445312501 Q 9.064028255892111 0.9214584960937501 9.070276546907737 0.9178410644531251 Q 9.076524837923362 0.9142236328125001 9.083759701204611 0.9142236328125001 Q 9.09494085354836 0.9142236328125001 9.101846859407736 0.9221162109375001 Q 9.10875286526711 0.9300087890625001 9.10875286526711 0.93987451171875 Q 9.10875286526711 0.9438208007812501 9.10612200589211 0.9503979492187501 M 9.227141537142112 1.05168603515625 Q 9.23832268948586 1.07667919921875 9.263973568392112 1.091477783203125 Q 9.289624447298362 1.1062763671875 9.32185247464211 1.1062763671875 Q 9.331718197298361 1.1062763671875 9.35408050198586 1.103316650390625 Q 9.376442806673362 1.10035693359375 9.405711117220235 1.083585205078125 Q 9.43497942776711 1.0668134765625001 9.467865169954612 1.0306391601562501 Q 9.500750912142111 0.9944648437500001 9.531663509798362 0.9286933593750001 Q 9.534952084017112 0.9214584960937501 9.540871517610862 0.9178410644531251 Q 9.546790951204612 0.9142236328125001 9.554025814485861 0.9142236328125001 Q 9.565206966829612 0.9142236328125001 9.572112972688986 0.9221162109375001 Q 9.579018978548362 0.9300087890625001 9.579018978548362 0.939216796875 Q 9.579018978548362 0.9431630859375001 9.57638811917336 0.9497402343750001 Q 9.55336809964211 0.9977534179687501 9.525086361360861 1.035572021484375 Q 9.496804623079612 1.073390625 9.46391888089211 1.100028076171875 Q 9.431033138704612 1.12666552734375 9.395187679720236 1.140806396484375 Q 9.359342220735861 1.1549472656250002 9.32185247464211 1.1549472656250002 Q 9.292255306673361 1.1549472656250002 9.266275570345236 1.1457392578125 Q 9.240295834017111 1.13653125 9.221550960970236 1.121074951171875 Q 9.202806087923362 1.1056186523437501 9.191953793001487 1.0862160644531251 Q 9.181101498079611 1.0668134765625001 9.181101498079611 1.04642431640625 Q 9.181101498079611 1.0437934570312501 9.181759212923362 1.039189453125 Q 9.182416927767111 1.03458544921875 9.185376644563986 1.028994873046875 Q 9.18833636136086 1.0234042968750001 9.193926937532737 1.0184714355468751 Q 9.199517513704611 1.0135385742187502 9.20938323636086 1.01025 Q 9.236349544954612 1.002357421875 9.259040707063987 0.9908474121093751 Q 9.281731869173361 0.97933740234375 9.298174740267111 0.96486767578125 Q 9.31461761136086 0.9503979492187501 9.32382561917336 0.9329685058593751 Q 9.333033626985861 0.9155390625000001 9.333033626985861 0.89514990234375 Q 9.333033626985861 0.8773916015625001 9.321194759798361 0.8662104492187501 Q 9.309355892610862 0.8550292968750001 9.292255306673361 0.8550292968750001 Q 9.274497005892112 0.8550292968750001 9.257396419954611 0.867197021484375 Q 9.240295834017111 0.87936474609375 9.224181820345237 0.899425048828125 Q 9.20806780667336 0.9194853515625001 9.193598080110862 0.945465087890625 Q 9.17912835354836 0.9714448242187501 9.166960628938986 0.9997265625 Q 9.15479290432961 1.02800830078125 9.14558489651711 1.0559611816406251 Q 9.13637688870461 1.0839140625 9.13045745511086 1.107591796875 Q 9.128484310579612 1.11482666015625 9.126182308626486 1.123376953125 Q 9.123880306673362 1.13192724609375 9.119276302767112 1.1394909667968751 Q 9.114672298860862 1.1470546875 9.108095150423361 1.151987548828125 Q 9.10151800198586 1.15692041015625 9.090994564485861 1.15692041015625 Q 9.081128841829612 1.15692041015625 9.071920834017112 1.148698974609375 Q 9.062712826204612 1.1404775390625002 9.062712826204612 1.12074609375 Q 9.062712826204612 1.1167998046875 9.063041683626487 1.0904912109375 Q 9.06337054104836 1.0641826171875 9.064028255892111 1.021760009765625 Q 9.06468597073586 0.97933740234375 9.065672543001487 0.9244182128906251 Q 9.066659115267111 0.8694990234375001 9.067316830110862 0.808002685546875 Q 9.06797454495461 0.7465063476562501 9.06928997464211 0.6813925781250001 Q 9.070605404329612 0.6162788085937501 9.071263119173361 0.5544536132812501 Q 9.071920834017112 0.49262841796875 9.072907406282736 0.4370515136718751 Q 9.07389397854836 0.3814746093750001 9.074551693392111 0.338394287109375 Q 9.075209408235862 0.29531396484375005 9.075538265657736 0.26801879882812507 Q 9.075867123079611 0.2407236328125001 9.075867123079611 0.23546191406250006 Q 9.075867123079611 0.2249384765625001 9.083759701204611 0.21803247070312504 Q 9.091652279329612 0.21112646484375008 9.100860287142112 0.21112646484375008 Q 9.111383724642112 0.21112646484375008 9.118618587923361 0.21803247070312504 Q 9.12585345120461 0.2249384765625001 9.12585345120461 0.23611962890625005 Q 9.12585345120461 0.23743505859375003 9.125524593782735 0.26209936523437505 Q 9.125195736360862 0.28676367187500007 9.124538021517111 0.3281997070312501 Q 9.123880306673362 0.36963574218750006 9.122893734407736 0.4248837890625 Q 9.121907162142112 0.4801318359375001 9.120920589876485 0.5422858886718751 Q 9.119934017610861 0.60443994140625 9.118947445345237 0.67021142578125 Q 9.11796087307961 0.7359829101562501 9.116974300813986 0.7984658203125001 Q 9.115987728548362 0.86094873046875 9.115330013704611 0.91751220703125 Q 9.114672298860862 0.9740756835937501 9.114014584017111 1.01748486328125 Q 9.124538021517111 0.98394140625 9.14098089261086 0.9467805175781251 Q 9.157423763704612 0.90961962890625 9.179786068392112 0.8780493164062501 Q 9.202148373079611 0.8464790039062501 9.230101253938987 0.82608984375 Q 9.25805413479836 0.8057006835937501 9.292255306673361 0.8057006835937501 Q 9.31132903714211 0.8057006835937501 9.327771908235862 0.812606689453125 Q 9.344214779329612 0.8195126953125 9.356382503938987 0.831680419921875 Q 9.368550228548362 0.84384814453125 9.375456234407736 0.8602910156250001 Q 9.382362240267112 0.8767338867187501 9.382362240267112 0.8958076171875 Q 9.382362240267112 0.92540478515625 9.36920794339211 0.950069091796875 Q 9.356053646517111 0.9747333984375001 9.33434905667336 0.994135986328125 Q 9.312644466829612 1.0135385742187502 9.284691585970236 1.02800830078125 Q 9.25673870511086 1.04247802734375 9.227141537142112 1.05168603515625 M 9.604669857454612 0.8892304687500001 Q 9.60072356839211 0.8997539062500001 9.595132992220236 0.9129082031250001 Q 9.589542416048362 0.9260625 9.58230755276711 0.9405322265625 Q 9.57638811917336 0.9517133789062501 9.570139828157735 0.957961669921875 Q 9.56389153714211 0.9642099609375001 9.554025814485861 0.9642099609375001 Q 9.54284466214211 0.9642099609375001 9.536267513704612 0.957303955078125 Q 9.529690365267111 0.9503979492187501 9.529690365267111 0.9411899414062501 Q 9.529690365267111 0.9379013671875001 9.53034808011086 0.935599365234375 Q 9.531005794954611 0.93329736328125 9.53363665432961 0.9280356445312501 Q 9.550737240267111 0.89514990234375 9.558958675813987 0.870485595703125 Q 9.56718011136086 0.8458212890625001 9.572441830110861 0.81885498046875 Q 9.567837826204611 0.8037275390625 9.56586468167336 0.7932041015625 Q 9.56389153714211 0.7826806640625 9.56389153714211 0.77149951171875 Q 9.56389153714211 0.7497949218750001 9.57309954495461 0.736311767578125 Q 9.58230755276711 0.72282861328125 9.598750423860862 0.72282861328125 Q 9.613877865267112 0.72282861328125 9.622757015657736 0.7359829101562501 Q 9.631636166048361 0.7491372070312501 9.631636166048361 0.7682109375000001 Q 9.631636166048361 0.778734375 9.62966302151711 0.7892578125 Q 9.627689876985862 0.7997812500000001 9.624401302767112 0.8155664062500001 Q 9.639528744173361 0.8530561523437501 9.654656185579611 0.8819956054687501 Q 9.669783626985861 0.9109350585937501 9.68162249417336 0.934941650390625 Q 9.69346136136086 0.9589482421875001 9.701025082063985 0.9799951171875001 Q 9.70858880276711 1.0010419921875 9.70858880276711 1.0220888671875001 Q 9.70858880276711 1.049712890625 9.697407650423362 1.0747060546875 Q 9.686226498079611 1.09969921875 9.660575619173361 1.1167998046875 Q 9.663864193392111 1.11745751953125 9.667152767610862 1.11745751953125 Q 9.67044134182961 1.11745751953125 9.67372991604836 1.11745751953125 Q 9.711219662142112 1.11745751953125 9.742789974642111 1.10035693359375 Q 9.77436028714211 1.08325634765625 9.799682308626487 1.0559611816406251 Q 9.825004330110861 1.028666015625 9.844735775423361 0.995451416015625 Q 9.864467220735861 0.96223681640625 9.87893694729836 0.9293510742187501 Q 9.88551409573586 0.9142236328125001 9.89735296292336 0.9142236328125001 Q 9.908534115267111 0.9142236328125001 9.914782406282736 0.9221162109375001 Q 9.921030697298361 0.9300087890625001 9.921030697298361 0.939216796875 Q 9.921030697298361 0.9444785156250001 9.91905755276711 0.94908251953125 Q 9.911822689485861 0.9668408203125001 9.900312679720235 0.9895319824218751 Q 9.888802669954611 1.01222314453125 9.872688656282737 1.036229736328125 Q 9.85657464261086 1.060236328125 9.835527767610861 1.08325634765625 Q 9.814480892610861 1.1062763671875 9.788501156282736 1.124363525390625 Q 9.762521419954611 1.14245068359375 9.73160882229836 1.153302978515625 Q 9.700696224642112 1.1641552734375 9.663864193392111 1.1641552734375 Q 9.619797298860862 1.1641552734375 9.581978695345237 1.148698974609375 Q 9.54416009182961 1.1332426757812502 9.520482357454611 1.09772607421875 Q 9.516536068392112 1.091806640625 9.516536068392112 1.0852294921875 Q 9.516536068392112 1.0753637695312501 9.524099789095237 1.067800048828125 Q 9.531663509798362 1.060236328125 9.54152923245461 1.060236328125 Q 9.55205266995461 1.060236328125 9.55928753323586 1.06747119140625 Q 9.559945248079611 1.06878662109375 9.56389153714211 1.0717463378906251 Q 9.567837826204611 1.0747060546875 9.573428402376486 1.078323486328125 Q 9.57901897854836 1.08194091796875 9.586582699251487 1.08457177734375 Q 9.594146419954612 1.08720263671875 9.60203899807961 1.08720263671875 Q 9.617824154329611 1.08720263671875 9.628676449251486 1.08062548828125 Q 9.639528744173361 1.0740483398437501 9.64610589261086 1.0645114746093751 Q 9.65268304104836 1.054974609375 9.655642757845236 1.044122314453125 Q 9.65860247464211 1.03327001953125 9.65860247464211 1.02537744140625 Q 9.65860247464211 1.0089345703125001 9.653340755892112 0.99249169921875 Q 9.64807903714211 0.976048828125 9.639857601595237 0.9596059570312501 Q 9.631636166048361 0.9431630859375001 9.622099300813986 0.9257336425781251 Q 9.61256243557961 0.90830419921875 9.604669857454612 0.8892304687500001" fill="#ff6b00" fill-rule="nonzero"></path></g><g><path d=" M 1.2203405659343365 1.7838515031253164 C 1.2203405659343365 1.7838515031253164 1.2315818159343364 1.7838515031253164 1.2315818159343364 1.7706552531253164 C 1.2315818159343364 1.7569702531253162 1.2203405659343365 1.7569702531253162 1.2203405659343365 1.7569702531253162 L 0.9691230659343364 1.7569702531253162 C 0.9691230659343364 1.7569702531253162 0.9578818159343363 1.7569702531253162 0.9578818159343363 1.7706552531253164 C 0.9578818159343363 1.7838515031253164 0.9691230659343364 1.7838515031253164 0.9691230659343364 1.7838515031253164 L 1.0800693159343364 1.7838515031253164 L 1.0800693159343364 2.1122915031253164 C 1.0800693159343364 2.1122915031253164 1.0800693159343364 2.1235327531253163 1.0947318159343364 2.1235327531253163 C 1.1093943159343365 2.1235327531253163 1.1093943159343365 2.1122915031253164 1.1093943159343365 2.1122915031253164 L 1.1093943159343365 1.7838515031253164 M 1.4759785328532817 2.0526640031253165 L 1.5048147828532819 2.114246503125316 C 1.5077472828532816 2.120111503125316 1.5121460328532816 2.1235327531253163 1.5194772828532817 2.1235327531253163 C 1.5277860328532817 2.1235327531253163 1.5312072828532817 2.1176677531253163 1.5312072828532817 2.1137577531253164 C 1.5312072828532817 2.109847753125316 1.5297410328532817 2.1074040031253163 1.5297410328532817 2.1074040031253163 L 1.3924022828532818 1.8180640031253164 C 1.3899585328532817 1.8126877531253163 1.3875147828532817 1.8068227531253163 1.3801835328532817 1.8068227531253163 C 1.3728522828532816 1.8068227531253163 1.3699197828532816 1.8126877531253163 1.3674760328532818 1.8175752531253162 L 1.2320922828532817 2.1074040031253163 C 1.2320922828532817 2.1074040031253163 1.2306260328532816 2.109847753125316 1.2306260328532816 2.1137577531253164 C 1.2306260328532816 2.1191340031253163 1.2355135328532816 2.1235327531253163 1.2423560328532817 2.1235327531253163 C 1.2521310328532818 2.1235327531253163 1.2555522828532817 2.120111503125316 1.2594622828532818 2.111314003125316 L 1.2863435328532817 2.0526640031253165 M 1.3806722828532818 1.8498327531253163 L 1.4637597828532818 2.026760253125316 L 1.2985622828532817 2.026760253125316 M 1.6084424311687113 2.056085253125316 C 1.6084424311687113 2.042889003125316 1.6172399311687113 2.0350690031253165 1.6172399311687113 2.0292040031253165 C 1.6172399311687113 2.0243165031253163 1.6128411811687113 2.020895253125316 1.6079536811687114 2.020895253125316 C 1.6001336811687112 2.020895253125316 1.5820499311687113 2.0331140031253163 1.5820499311687113 2.0609727531253164 C 1.5820499311687113 2.1049602531253164 1.6275036811687114 2.1284202531253165 1.6954399311687114 2.1284202531253165 C 1.7726624311687114 2.1284202531253165 1.8146949311687113 2.086387753125316 1.8146949311687113 2.0365352531253165 C 1.8146949311687113 1.9343865031253162 1.6201724311687113 1.9685990031253162 1.6201724311687113 1.8869777531253162 C 1.6201724311687113 1.8488552531253162 1.6607386811687113 1.8307715031253162 1.7022824311687113 1.8307715031253162 C 1.7418711811687113 1.8307715031253162 1.7663086811687112 1.8469002531253162 1.7663086811687112 1.8679165031253162 C 1.7663086811687112 1.8845340031253164 1.7589774311687114 1.8864890031253163 1.7589774311687114 1.8923540031253163 C 1.7589774311687114 1.8957752531253163 1.7614211811687113 1.8991965031253164 1.7687524311687113 1.8991965031253164 C 1.7775499311687113 1.8991965031253164 1.7936786811687113 1.8860002531253164 1.7936786811687113 1.8664502531253162 C 1.7936786811687113 1.8341927531253162 1.7565336811687113 1.8068227531253163 1.7022824311687113 1.8068227531253163 C 1.6367899311687113 1.8068227531253163 1.5928024311687112 1.8415240031253162 1.5928024311687112 1.8918652531253164 C 1.5928024311687112 1.9910815031253164 1.7873249311687114 1.9573577531253163 1.7873249311687114 2.0404452531253163 C 1.7873249311687114 2.0780790031253162 1.7501799311687114 2.1034940031253164 1.6944624311687113 2.1034940031253164 C 1.6411886811687113 2.1034940031253164 1.6084424311687113 2.0858990031253164 1.6084424311687113 2.056085253125316 M 2.0810885005046487 1.8371252531253162 C 2.0810885005046487 1.8371252531253162 2.089397250504649 1.8351702531253162 2.089397250504649 1.8244177531253163 C 2.089397250504649 1.8141540031253163 2.0810885005046487 1.8121990031253163 2.0810885005046487 1.8121990031253163 L 1.8650610005046488 1.8121990031253163 C 1.8650610005046488 1.8121990031253163 1.8567522505046488 1.8141540031253163 1.8567522505046488 1.8244177531253163 C 1.8567522505046488 1.8351702531253162 1.8650610005046488 1.8371252531253162 1.8650610005046488 1.8371252531253162 L 1.9593897505046487 1.8371252531253162 L 1.9593897505046487 2.1152240031253164 C 1.9593897505046487 2.1196227531253164 1.9623222505046487 2.1235327531253163 1.9730747505046486 2.1235327531253163 C 1.9838272505046488 2.1235327531253163 1.9872485005046487 2.1196227531253164 1.9872485005046487 2.1152240031253164 L 1.9872485005046487 1.8371252531253162 M 2.1759112507487894 2.098117753125316 L 2.1759112507487894 2.013564003125316 L 2.312272500748789 2.013564003125316 C 2.312272500748789 2.013564003125316 2.3205812507487895 2.0116090031253164 2.3205812507487895 2.0008565031253163 C 2.3205812507487895 1.9901040031253163 2.312272500748789 1.9876602531253162 2.312272500748789 1.9876602531253162 L 2.1759112507487894 1.9876602531253162 L 2.1759112507487894 1.8376140031253163 L 2.3376875007487894 1.8376140031253163 C 2.3376875007487894 1.8376140031253163 2.3459962507487893 1.8351702531253162 2.3459962507487893 1.8244177531253163 C 2.3459962507487893 1.8141540031253163 2.3376875007487894 1.8121990031253163 2.3376875007487894 1.8121990031253163 L 2.1563612507487893 1.8121990031253163 C 2.1514737507487895 1.8121990031253163 2.1480525007487894 1.8151315031253163 2.1480525007487894 1.8205077531253162 L 2.1480525007487894 2.1152240031253164 C 2.1480525007487894 2.120111503125316 2.1514737507487895 2.1235327531253163 2.1563612507487893 2.1235327531253163 L 2.3494175007487894 2.1235327531253163 C 2.3494175007487894 2.1235327531253163 2.3577262507487893 2.121577753125316 2.3577262507487893 2.1108252531253164 C 2.3577262507487893 2.1005615031253164 2.3494175007487894 2.098117753125316 2.3494175007487894 2.098117753125316 M 2.831808500504649 1.9901040031253163 L 2.831808500504649 2.1122915031253164 C 2.831808500504649 2.1122915031253164 2.831808500504649 2.1235327531253163 2.846471000504649 2.1235327531253163 C 2.861133500504649 2.1235327531253163 2.861133500504649 2.1122915031253164 2.861133500504649 2.1122915031253164 L 2.861133500504649 1.7682115031253163 C 2.861133500504649 1.7682115031253163 2.861133500504649 1.7569702531253162 2.846471000504649 1.7569702531253162 C 2.831808500504649 1.7569702531253162 2.831808500504649 1.7682115031253163 2.831808500504649 1.7682115031253163 L 2.831808500504649 1.9632227531253164 L 2.592321000504649 1.9632227531253164 L 2.592321000504649 1.7682115031253163 C 2.592321000504649 1.7682115031253163 2.592321000504649 1.7569702531253162 2.577658500504649 1.7569702531253162 C 2.562996000504649 1.7569702531253162 2.562996000504649 1.7682115031253163 2.562996000504649 1.7682115031253163 L 2.562996000504649 2.1122915031253164 C 2.562996000504649 2.1122915031253164 2.562996000504649 2.1235327531253163 2.577658500504649 2.1235327531253163 C 2.592321000504649 2.1235327531253163 2.592321000504649 2.1122915031253164 2.592321000504649 2.1122915031253164 L 2.592321000504649 1.9901040031253163 M 3.1015973072673444 2.102516503125316 C 3.0331723072673444 2.102516503125316 2.9745223072673443 2.0497315031253165 2.9745223072673443 1.9685990031253162 C 2.9745223072673443 1.8860002531253164 3.0326835572673443 1.8322377531253162 3.1015973072673444 1.8322377531253162 C 3.170511057267344 1.8322377531253162 3.2286723072673444 1.8860002531253164 3.2286723072673444 1.9685990031253162 C 3.2286723072673444 2.0497315031253165 3.169533557267344 2.102516503125316 3.1015973072673444 2.102516503125316 M 3.1015973072673444 2.1279315031253163 C 3.1856623072673442 2.1279315031253163 3.2560423072673443 2.063416503125316 3.2560423072673443 1.9685990031253162 C 3.2560423072673443 1.8728040031253164 3.1817523072673444 1.8068227531253163 3.1015973072673444 1.8068227531253163 C 3.0214423072673444 1.8068227531253163 2.9466635572673443 1.8728040031253164 2.9466635572673443 1.9685990031253162 C 2.9466635572673443 2.063416503125316 3.0170435572673444 2.1279315031253163 3.1015973072673444 2.1279315031253163 M 3.504825841813243 2.118645253125316 C 3.510690841813243 2.118645253125316 3.513134591813243 2.1147352531253163 3.515089591813243 2.1118027531253163 L 3.6529170918132428 1.8757365031253164 L 3.6529170918132428 2.1152240031253164 C 3.6529170918132428 2.1210890031253165 3.6558495918132428 2.1235327531253163 3.6670908418132426 2.1235327531253163 C 3.6773545918132426 2.1235327531253163 3.680775841813243 2.1206002531253163 3.680775841813243 2.1152240031253164 L 3.680775841813243 1.8195302531253164 C 3.680775841813243 1.8146427531253164 3.675399591813243 1.8121990031253163 3.669534591813243 1.8121990031253163 C 3.6646470918132428 1.8121990031253163 3.659759591813243 1.8141540031253163 3.6573158418132428 1.8180640031253164 L 3.5067808418132427 2.0800340031253164 L 3.3635770918132426 1.8185527531253163 C 3.3611333418132427 1.8141540031253163 3.3562458418132426 1.8121990031253163 3.3489145918132426 1.8121990031253163 C 3.342560841813243 1.8121990031253163 3.336695841813243 1.8151315031253163 3.336695841813243 1.8205077531253162 L 3.336695841813243 2.1152240031253164 C 3.336695841813243 2.120111503125316 3.338650841813243 2.1235327531253163 3.3494033418132427 2.1235327531253163 C 3.360155841813243 2.1235327531253163 3.3621108418132426 2.120111503125316 3.3621108418132426 2.1152240031253164 L 3.3621108418132426 1.8723152531253162 L 3.494073341813243 2.1118027531253163 C 3.496028341813243 2.1152240031253164 3.498960841813243 2.118645253125316 3.504825841813243 2.118645253125316 M 3.7965959889079697 2.098117753125316 L 3.7965959889079697 2.013564003125316 L 3.9329572389079694 2.013564003125316 C 3.9329572389079694 2.013564003125316 3.9412659889079698 2.0116090031253164 3.9412659889079698 2.0008565031253163 C 3.9412659889079698 1.9901040031253163 3.9329572389079694 1.9876602531253162 3.9329572389079694 1.9876602531253162 L 3.7965959889079697 1.9876602531253162 L 3.7965959889079697 1.8376140031253163 L 3.9583722389079696 1.8376140031253163 C 3.9583722389079696 1.8376140031253163 3.9666809889079695 1.8351702531253162 3.9666809889079695 1.8244177531253163 C 3.9666809889079695 1.8141540031253163 3.9583722389079696 1.8121990031253163 3.9583722389079696 1.8121990031253163 L 3.7770459889079695 1.8121990031253163 C 3.77215848890797 1.8121990031253163 3.7687372389079696 1.8151315031253163 3.7687372389079696 1.8205077531253162 L 3.7687372389079696 2.1152240031253164 C 3.7687372389079696 2.120111503125316 3.77215848890797 2.1235327531253163 3.7770459889079695 2.1235327531253163 L 3.9701022389079696 2.1235327531253163 C 3.9701022389079696 2.1235327531253163 3.9784109889079695 2.121577753125316 3.9784109889079695 2.1108252531253164 C 3.9784109889079695 2.1005615031253164 3.9701022389079696 2.098117753125316 3.9701022389079696 2.098117753125316 M 4.062461192765392 2.1074040031253163 C 4.062461192765392 2.0912752531253163 4.052197442765392 2.0815002531253164 4.037534942765392 2.0815002531253164 C 4.026293692765392 2.0815002531253164 4.017496192765392 2.087854003125316 4.017496192765392 2.0986065031253163 C 4.017496192765392 2.1122915031253164 4.031669942765392 2.120111503125316 4.031669942765392 2.127442753125316 C 4.031669942765392 2.140639003125316 4.015052442765391 2.1484590031253163 4.015052442765391 2.1572565031253164 C 4.015052442765391 2.1621440031253165 4.018962442765392 2.1675202531253164 4.026293692765392 2.1675202531253164 C 4.035579942765391 2.1675202531253164 4.062461192765392 2.134774003125316 4.062461192765392 2.1074040031253163 M 4.502327124161876 2.041422753125316 L 4.535073374161875 2.114246503125316 C 4.537028374161876 2.118645253125316 4.541915874161876 2.1235327531253163 4.552179624161876 2.1235327531253163 C 4.564887124161876 2.1235327531253163 4.564887124161876 2.117179003125316 4.564887124161876 2.114246503125316 C 4.564887124161876 2.111314003125316 4.563420874161876 2.1074040031253163 4.563420874161876 2.1074040031253163 L 4.4070208741618755 1.7672340031253162 C 4.4040883741618755 1.7603915031253163 4.399200874161876 1.7540377531253162 4.388448374161876 1.7540377531253162 C 4.376718374161876 1.7540377531253162 4.373785874161876 1.7589252531253163 4.369387124161876 1.7682115031253163 L 4.213475874161876 2.1074040031253163 C 4.213475874161876 2.1074040031253163 4.212009624161876 2.1103365031253163 4.212009624161876 2.1122915031253164 C 4.212009624161876 2.1181565031253164 4.2159196241618755 2.1235327531253163 4.2247171241618755 2.1235327531253163 C 4.236935874161876 2.1235327531253163 4.2393796241618755 2.1191340031253163 4.241823374161876 2.114246503125316 L 4.274569624161876 2.041422753125316 M 4.388448374161876 1.7892277531253162 L 4.490108374161876 2.0145415031253164 L 4.286788374161876 2.0145415031253164 M 4.8263485664226184 1.8332152531253163 C 4.819506066422618 1.8332152531253163 4.814618566422618 1.8346815031253163 4.813641066422618 1.8376140031253163 L 4.718823566422619 2.086387753125316 L 4.624983566422618 1.8209965031253164 C 4.623028566422619 1.8151315031253163 4.620096066422619 1.8121990031253163 4.610809816422618 1.8121990031253163 C 4.604456066422618 1.8121990031253163 4.597124816422618 1.8131765031253164 4.597124816422618 1.8205077531253162 C 4.597124816422618 1.8234402531253162 4.598591066422618 1.8273502531253163 4.598591066422618 1.8273502531253163 L 4.703672316422618 2.1196227531253164 C 4.706116066422618 2.1264652531253163 4.709537316422618 2.1279315031253163 4.717357316422619 2.1279315031253163 C 4.723711066422618 2.1279315031253163 4.729087316422619 2.1249990031253163 4.730553566422619 2.1206002531253163 L 4.825859816422619 1.8693827531253162 L 4.924587316422619 2.1206002531253163 C 4.926542316422618 2.1249990031253163 4.931429816422618 2.1279315031253163 4.938272316422618 2.1279315031253163 C 4.944137316422618 2.1279315031253163 4.949513566422619 2.1249990031253163 4.951468566422618 2.1196227531253164 L 5.0555723164226185 1.8258840031253163 C 5.0555723164226185 1.8258840031253163 5.0570385664226185 1.8219740031253162 5.0570385664226185 1.8200190031253163 C 5.0570385664226185 1.8156202531253163 5.054594816422618 1.8121990031253163 5.044331066422618 1.8121990031253163 C 5.037488566422619 1.8121990031253163 5.0335785664226185 1.8151315031253163 5.031623566422619 1.8209965031253164 L 4.938272316422618 2.0873652531253164 L 4.8424773164226185 1.8376140031253163 C 4.8410110664226185 1.8337040031253162 4.832702316422618 1.8332152531253163 4.8263485664226184 1.8332152531253163 M 5.3278082142497665 2.0526640031253165 L 5.356644464249767 2.114246503125316 C 5.359576964249767 2.120111503125316 5.363975714249767 2.1235327531253163 5.371306964249767 2.1235327531253163 C 5.379615714249766 2.1235327531253163 5.383036964249767 2.1176677531253163 5.383036964249767 2.1137577531253164 C 5.383036964249767 2.109847753125316 5.381570714249767 2.1074040031253163 5.381570714249767 2.1074040031253163 L 5.244231964249766 1.8180640031253164 C 5.241788214249767 1.8126877531253163 5.239344464249767 1.8068227531253163 5.232013214249767 1.8068227531253163 C 5.224681964249767 1.8068227531253163 5.221749464249767 1.8126877531253163 5.219305714249766 1.8175752531253162 L 5.083921964249766 2.1074040031253163 C 5.083921964249766 2.1074040031253163 5.082455714249766 2.109847753125316 5.082455714249766 2.1137577531253164 C 5.082455714249766 2.1191340031253163 5.087343214249767 2.1235327531253163 5.094185714249766 2.1235327531253163 C 5.103960714249767 2.1235327531253163 5.107381964249766 2.120111503125316 5.111291964249767 2.111314003125316 L 5.1381732142497665 2.0526640031253165 M 5.232501964249766 1.8498327531253163 L 5.315589464249767 2.026760253125316 L 5.150391964249767 2.026760253125316 M 5.514513339371836 1.9979240031253163 L 5.514513339371836 2.1152240031253164 C 5.514513339371836 2.1191340031253163 5.517934589371837 2.1235327531253163 5.528198339371837 2.1235327531253163 C 5.5394395893718364 2.1235327531253163 5.5423720893718365 2.1191340031253163 5.5423720893718365 2.1152240031253164 L 5.5423720893718365 1.9979240031253163 L 5.655762089371837 1.8263727531253162 C 5.655762089371837 1.8263727531253162 5.658205839371837 1.8234402531253162 5.658205839371837 1.8214852531253163 C 5.658205839371837 1.8156202531253163 5.651363339371837 1.8121990031253163 5.644520839371837 1.8121990031253163 C 5.637189589371837 1.8121990031253163 5.633279589371837 1.8161090031253164 5.633279589371837 1.8161090031253164 L 5.529664589371837 1.9715315031253162 L 5.428982089371837 1.8219740031253162 C 5.424583339371837 1.8151315031253163 5.418718339371837 1.8121990031253163 5.4113870893718365 1.8121990031253163 C 5.403567089371837 1.8121990031253163 5.399168339371837 1.8165977531253164 5.399168339371837 1.8209965031253164 C 5.399168339371837 1.8249065031253162 5.401612089371837 1.8293052531253162 5.401612089371837 1.8293052531253162 M 5.868384090104258 2.0184515031253163 L 5.997414090104258 2.0184515031253163 C 5.997414090104258 2.0184515031253163 6.005722840104258 2.016496503125316 6.005722840104258 2.0057440031253164 C 6.005722840104258 1.9949915031253163 5.997414090104258 1.9930365031253163 5.997414090104258 1.9930365031253163 L 5.868384090104258 1.9930365031253163 L 5.868384090104258 1.8371252531253162 L 6.030649090104258 1.8371252531253162 C 6.030649090104258 1.8371252531253162 6.038957840104258 1.8351702531253162 6.038957840104258 1.8244177531253163 C 6.038957840104258 1.8141540031253163 6.030649090104258 1.8121990031253163 6.030649090104258 1.8121990031253163 L 5.848834090104258 1.8121990031253163 C 5.843946590104258 1.8121990031253163 5.840525340104258 1.8151315031253163 5.840525340104258 1.8205077531253162 L 5.840525340104258 2.1152240031253164 C 5.840525340104258 2.1191340031253163 5.843946590104258 2.1235327531253163 5.854210340104258 2.1235327531253163 C 5.865451590104258 2.1235327531253163 5.868384090104258 2.1191340031253163 5.868384090104258 2.1152240031253164 M 6.327819113297617 2.099584003125316 C 6.287741613297618 2.099584003125316 6.272590363297617 2.0409340031253165 6.225670363297617 2.012097753125316 C 6.277477863297618 1.9964577531253163 6.317555363297617 1.9612677531253162 6.317555363297617 1.9055502531253163 C 6.317555363297617 1.8337040031253162 6.256461613297617 1.8121990031253163 6.183149113297617 1.8121990031253163 L 6.115701613297618 1.8121990031253163 C 6.110814113297617 1.8121990031253163 6.107392863297617 1.8151315031253163 6.107392863297617 1.8205077531253162 L 6.107392863297617 2.1152240031253164 C 6.107392863297617 2.1206002531253163 6.110814113297617 2.1235327531253163 6.121077863297617 2.1235327531253163 C 6.132319113297617 2.1235327531253163 6.135251613297617 2.120111503125316 6.135251613297617 2.1152240031253164 L 6.135251613297617 1.8371252531253162 L 6.182171613297617 1.8371252531253162 C 6.2437541132976175 1.8371252531253162 6.288719113297617 1.8473890031253162 6.288719113297617 1.9065277531253164 C 6.288719113297617 1.9710427531253163 6.2246928632976175 1.9979240031253163 6.152846613297617 1.9979240031253163 C 6.146981613297617 1.9979240031253163 6.144049113297617 1.9993902531253163 6.144049113297617 2.0086765031253164 C 6.144049113297617 2.015030253125316 6.146981613297617 2.0213840031253163 6.158222863297618 2.0213840031253163 C 6.168975363297617 2.0213840031253163 6.180216613297617 2.020895253125316 6.1909691132976175 2.019429003125316 C 6.250596613297617 2.0448440031253163 6.268680363297618 2.1235327531253163 6.317066613297618 2.1235327531253163 C 6.327819113297617 2.1235327531253163 6.344436613297617 2.1181565031253164 6.344436613297617 2.1074040031253163 C 6.344436613297617 2.1044715031253163 6.342970363297617 2.098117753125316 6.339549113297617 2.098117753125316 C 6.336616613297617 2.098117753125316 6.336127863297618 2.099584003125316 6.327819113297617 2.099584003125316 M 6.55067956739918 2.102516503125316 C 6.48225456739918 2.102516503125316 6.42360456739918 2.0497315031253165 6.42360456739918 1.9685990031253162 C 6.42360456739918 1.8860002531253164 6.48176581739918 1.8322377531253162 6.55067956739918 1.8322377531253162 C 6.61959331739918 1.8322377531253162 6.67775456739918 1.8860002531253164 6.67775456739918 1.9685990031253162 C 6.67775456739918 2.0497315031253165 6.6186158173991805 2.102516503125316 6.55067956739918 2.102516503125316 M 6.55067956739918 2.1279315031253163 C 6.6347445673991805 2.1279315031253163 6.70512456739918 2.063416503125316 6.70512456739918 1.9685990031253162 C 6.70512456739918 1.8728040031253164 6.63083456739918 1.8068227531253163 6.55067956739918 1.8068227531253163 C 6.47052456739918 1.8068227531253163 6.39574581739918 1.8728040031253164 6.39574581739918 1.9685990031253162 C 6.39574581739918 2.063416503125316 6.46612581739918 2.1279315031253163 6.55067956739918 2.1279315031253163 M 6.953908101945078 2.118645253125316 C 6.959773101945078 2.118645253125316 6.962216851945079 2.1147352531253163 6.964171851945078 2.1118027531253163 L 7.101999351945079 1.8757365031253164 L 7.101999351945079 2.1152240031253164 C 7.101999351945079 2.1210890031253165 7.104931851945079 2.1235327531253163 7.116173101945079 2.1235327531253163 C 7.126436851945079 2.1235327531253163 7.129858101945079 2.1206002531253163 7.129858101945079 2.1152240031253164 L 7.129858101945079 1.8195302531253164 C 7.129858101945079 1.8146427531253164 7.124481851945078 1.8121990031253163 7.118616851945078 1.8121990031253163 C 7.113729351945079 1.8121990031253163 7.108841851945079 1.8141540031253163 7.106398101945079 1.8180640031253164 L 6.955863101945079 2.0800340031253164 L 6.812659351945078 1.8185527531253163 C 6.810215601945079 1.8141540031253163 6.805328101945078 1.8121990031253163 6.797996851945078 1.8121990031253163 C 6.791643101945079 1.8121990031253163 6.785778101945079 1.8151315031253163 6.785778101945079 1.8205077531253162 L 6.785778101945079 2.1152240031253164 C 6.785778101945079 2.120111503125316 6.787733101945078 2.1235327531253163 6.798485601945079 2.1235327531253163 C 6.809238101945079 2.1235327531253163 6.811193101945078 2.120111503125316 6.811193101945078 2.1152240031253164 L 6.811193101945078 1.8723152531253162 L 6.943155601945079 2.1118027531253163 C 6.945110601945078 2.1152240031253164 6.948043101945078 2.118645253125316 6.953908101945078 2.118645253125316 M 7.6234915449382425 1.9901040031253163 L 7.6234915449382425 2.1122915031253164 C 7.6234915449382425 2.1122915031253164 7.6234915449382425 2.1235327531253163 7.638154044938243 2.1235327531253163 C 7.652816544938243 2.1235327531253163 7.652816544938243 2.1122915031253164 7.652816544938243 2.1122915031253164 L 7.652816544938243 1.7682115031253163 C 7.652816544938243 1.7682115031253163 7.652816544938243 1.7569702531253162 7.638154044938243 1.7569702531253162 C 7.6234915449382425 1.7569702531253162 7.6234915449382425 1.7682115031253163 7.6234915449382425 1.7682115031253163 L 7.6234915449382425 1.9632227531253164 L 7.3840040449382425 1.9632227531253164 L 7.3840040449382425 1.7682115031253163 C 7.3840040449382425 1.7682115031253163 7.3840040449382425 1.7569702531253162 7.3693415449382424 1.7569702531253162 C 7.354679044938242 1.7569702531253162 7.354679044938242 1.7682115031253163 7.354679044938242 1.7682115031253163 L 7.354679044938242 2.1122915031253164 C 7.354679044938242 2.1122915031253164 7.354679044938242 2.1235327531253163 7.3693415449382424 2.1235327531253163 C 7.3840040449382425 2.1235327531253163 7.3840040449382425 2.1122915031253164 7.3840040449382425 2.1122915031253164 L 7.3840040449382425 1.9901040031253163 M 7.893280351700938 2.102516503125316 C 7.824855351700938 2.102516503125316 7.766205351700938 2.0497315031253165 7.766205351700938 1.9685990031253162 C 7.766205351700938 1.8860002531253164 7.8243666017009375 1.8322377531253162 7.893280351700938 1.8322377531253162 C 7.962194101700938 1.8322377531253162 8.020355351700937 1.8860002531253164 8.020355351700937 1.9685990031253162 C 8.020355351700937 2.0497315031253165 7.961216601700938 2.102516503125316 7.893280351700938 2.102516503125316 M 7.893280351700938 2.1279315031253163 C 7.977345351700938 2.1279315031253163 8.047725351700938 2.063416503125316 8.047725351700938 1.9685990031253162 C 8.047725351700938 1.8728040031253164 7.973435351700938 1.8068227531253163 7.893280351700938 1.8068227531253163 C 7.813125351700938 1.8068227531253163 7.738346601700938 1.8728040031253164 7.738346601700938 1.9685990031253162 C 7.738346601700938 2.063416503125316 7.808726601700938 2.1279315031253163 7.893280351700938 2.1279315031253163 M 8.296508886246835 2.118645253125316 C 8.302373886246835 2.118645253125316 8.304817636246835 2.1147352531253163 8.306772636246835 2.1118027531253163 L 8.444600136246835 1.8757365031253164 L 8.444600136246835 2.1152240031253164 C 8.444600136246835 2.1210890031253165 8.447532636246835 2.1235327531253163 8.458773886246835 2.1235327531253163 C 8.469037636246835 2.1235327531253163 8.472458886246836 2.1206002531253163 8.472458886246836 2.1152240031253164 L 8.472458886246836 1.8195302531253164 C 8.472458886246836 1.8146427531253164 8.467082636246836 1.8121990031253163 8.461217636246836 1.8121990031253163 C 8.456330136246835 1.8121990031253163 8.451442636246835 1.8141540031253163 8.448998886246835 1.8180640031253164 L 8.298463886246836 2.0800340031253164 L 8.155260136246836 1.8185527531253163 C 8.152816386246835 1.8141540031253163 8.147928886246836 1.8121990031253163 8.140597636246836 1.8121990031253163 C 8.134243886246836 1.8121990031253163 8.128378886246836 1.8151315031253163 8.128378886246836 1.8205077531253162 L 8.128378886246836 2.1152240031253164 C 8.128378886246836 2.120111503125316 8.130333886246836 2.1235327531253163 8.141086386246835 2.1235327531253163 C 8.151838886246836 2.1235327531253163 8.153793886246836 2.120111503125316 8.153793886246836 2.1152240031253164 L 8.153793886246836 1.8723152531253162 L 8.285756386246835 2.1118027531253163 C 8.287711386246835 2.1152240031253164 8.290643886246835 2.118645253125316 8.296508886246835 2.118645253125316 M 8.588279033341562 2.098117753125316 L 8.588279033341562 2.013564003125316 L 8.724640283341563 2.013564003125316 C 8.724640283341563 2.013564003125316 8.732949033341562 2.0116090031253164 8.732949033341562 2.0008565031253163 C 8.732949033341562 1.9901040031253163 8.724640283341563 1.9876602531253162 8.724640283341563 1.9876602531253162 L 8.588279033341562 1.9876602531253162 L 8.588279033341562 1.8376140031253163 L 8.750055283341561 1.8376140031253163 C 8.750055283341561 1.8376140031253163 8.758364033341563 1.8351702531253162 8.758364033341563 1.8244177531253163 C 8.758364033341563 1.8141540031253163 8.750055283341561 1.8121990031253163 8.750055283341561 1.8121990031253163 L 8.568729033341562 1.8121990031253163 C 8.563841533341563 1.8121990031253163 8.560420283341562 1.8151315031253163 8.560420283341562 1.8205077531253162 L 8.560420283341562 2.1152240031253164 C 8.560420283341562 2.120111503125316 8.563841533341563 2.1235327531253163 8.568729033341562 2.1235327531253163 L 8.761785283341561 2.1235327531253163 C 8.761785283341561 2.1235327531253163 8.770094033341563 2.121577753125316 8.770094033341563 2.1108252531253164 C 8.770094033341563 2.1005615031253164 8.761785283341561 2.098117753125316 8.761785283341561 2.098117753125316 M 8.867340487198984 1.7682115031253163 C 8.867340487198984 1.7682115031253163 8.867340487198984 1.7569702531253162 8.852677987198984 1.7569702531253162 C 8.838015487198984 1.7569702531253162 8.838015487198984 1.7682115031253163 8.838015487198984 1.7682115031253163 L 8.838015487198984 2.034091503125316 C 8.838015487198984 2.034091503125316 8.838015487198984 2.0453327531253165 8.852677987198984 2.0453327531253165 C 8.867340487198984 2.0453327531253165 8.867340487198984 2.034091503125316 8.867340487198984 2.034091503125316 M 8.829706737198984 2.1074040031253163 C 8.829706737198984 2.1191340031253163 8.838504237198984 2.130375253125316 8.852677987198984 2.130375253125316 C 8.866362987198984 2.130375253125316 8.875160487198984 2.1191340031253163 8.875160487198984 2.1074040031253163 C 8.875160487198984 2.0956740031253163 8.864407987198984 2.0844327531253164 8.852677987198984 2.0844327531253164 C 8.840459237198985 2.0844327531253164 8.829706737198984 2.0956740031253163 8.829706737198984 2.1074040031253163" fill="#ffdd2c" fill-rule="nonzero"></path></g><g clip-path="url(#SvgjsClipPath1002)"><g clip-path="url(#a72a0ab9e-1eb5-4d5e-afc5-6507a6a3a84ef2dc0da9-d6f5-41f1-ac5c-e0331d91b54f)"><path d=" M 4.774060663971167 0.36688703706539016 C 4.774060663971167 0.36688703706539016 4.794295722052501 0.2960643337807202 4.859216533396782 0.2786597748952868 C 4.924137344741063 0.26131543939700036 5.368826835433242 0.26553107649727836 5.377258109633798 0.3095543725016097 C 5.385689383834354 0.35357766850594113 5.3084227781249735 0.4919107887822055 5.3084227781249735 0.4919107887822055 L 5.213269826432985 0.5019680944357259 L 5.210318880462791 0.37959417175337096 Z" fill="#0e1425" transform="matrix(1,0,0,1,0,0)" fill-rule="nonzero"></path></g><g clip-path="url(#a72a0ab9e-1eb5-4d5e-afc5-6507a6a3a84ef2dc0da9-d6f5-41f1-ac5c-e0331d91b54f)"><path d=" M 4.32515553617871 0.770383730949139 C 4.430546463685659 0.5994697582264407 4.6196478993267 0.5249132049386674 4.747562373626563 0.6037456187138656 C 4.8754166245392785 0.6826382558762104 4.893664310844768 0.8851092834638469 4.788333606724965 1.0559630327993985 C 4.682942679218016 1.2268770055220966 4.493841243576975 1.3014937821970167 4.365926769277112 1.2226011450346719 C 4.238012294977249 1.143768731259474 4.219764608671761 0.9412977036718374 4.32515553617871 0.770383730949139" fill="#0e1425" transform="matrix(1,0,0,1,0,0)" fill-rule="nonzero"></path></g><g clip-path="url(#a72a0ab9e-1eb5-4d5e-afc5-6507a6a3a84ef2dc0da9-d6f5-41f1-ac5c-e0331d91b54f)"><path d=" M 4.426330826585381 0.8209713761524747 C 4.490769850832487 0.7164837994527278 4.606398754154397 0.6708946953825788 4.68456871067098 0.7190734051000415 C 4.762738667187564 0.7673123382046507 4.7739402171968734 0.8910713987913826 4.709501192949768 0.9955589754911297 C 4.645062168702661 1.1000465521908764 4.529433265380751 1.1456356562610255 4.451263308864168 1.0974569465435629 C 4.373093352347585 1.0492180134389537 4.361891802338275 0.9254589528522216 4.426330826585381 0.8209713761524747" fill="#ffffff" transform="matrix(1,0,0,1,0,0)" fill-rule="nonzero"></path></g><g clip-path="url(#a72a0ab9e-1eb5-4d5e-afc5-6507a6a3a84ef2dc0da9-d6f5-41f1-ac5c-e0331d91b54f)"><path d=" M 4.521182661341635 1.1240154602753143 C 4.49450370083559 1.1240154602753143 4.46945077178251 1.1172102175277225 4.447409012086771 1.1035997320325395 C 4.407601353182717 1.0790888134637804 4.382969987839664 1.0354870811694767 4.378031670093625 0.9809246924144505 C 4.373153575734731 0.9271452076923329 4.388149199134292 0.8689694157084967 4.420127817709258 0.817056855987931 C 4.48655421373221 0.7093172163822553 4.606940764638718 0.6625838679563166 4.688423007448377 0.7128101728367714 C 4.728230666352431 0.7373813147926773 4.752862031695484 0.7809830470869807 4.757800349441523 0.8355454358420071 C 4.762678443800416 0.8893249205641248 4.747682820400856 0.9475007125479608 4.715704201825891 0.9993530488813799 C 4.683725583250925 1.0512656086019456 4.638497819503657 1.090711927183118 4.588211291236055 1.1105254215544247 C 4.566912515021513 1.1191871581073398 4.5441739651165305 1.1237634700379027 4.521182661341635 1.1240154602753143 M 4.432594058848651 0.824765449542725 C 4.40224147172665 0.8739679568416836 4.388028752359999 0.9289519093067377 4.392605729783157 0.9795997778972202 C 4.397122483819169 1.029464742454794 4.419284690289202 1.0690917311974069 4.455117605641565 1.0911334908931458 C 4.490890297606781 1.1132354739760317 4.5362987315154895 1.115283069139024 4.5828514097799875 1.0969149360592416 C 4.630186992077395 1.0782456860437248 4.672945596951642 1.0409071860126913 4.703237960686497 0.9917046787137328 C 4.7335905478084985 0.942502171414774 4.74780326717515 0.8875182189497198 4.743226289751991 0.8368703503592374 C 4.738709535715979 0.7870053858016636 4.716547329245946 0.7473783970590507 4.6807144138935834 0.7252764139761647 C 4.606097637218663 0.679265746195988 4.494744594384178 0.7238912760717876 4.432594058848651 0.824765449542725" fill="#0e1425" transform="matrix(1,0,0,1,0,0)" fill-rule="nonzero"></path></g><g clip-path="url(#a72a0ab9e-1eb5-4d5e-afc5-6507a6a3a84ef2dc0da9-d6f5-41f1-ac5c-e0331d91b54f)"><path d=" M 5.847482316476233 0.755990341421047 C 5.952873243983182 0.5850763686983487 6.141974679624223 0.5105198154105753 6.269889153924085 0.5893522291857735 C 6.3977434048368025 0.6682448663481184 6.416051314529438 0.8707158939357548 6.310660387022488 1.0415696432713064 C 6.20526945951554 1.2124836159940044 6.016168023874498 1.287100392668925 5.888253549574635 1.2082077555065798 C 5.760339075274772 1.1293753417313819 5.742091388969284 0.9269043141437455 5.847482316476233 0.755990341421047" fill="#0e1425" transform="matrix(1,0,0,1,0,0)" fill-rule="nonzero"></path></g><g clip-path="url(#a72a0ab9e-1eb5-4d5e-afc5-6507a6a3a84ef2dc0da9-d6f5-41f1-ac5c-e0331d91b54f)"><path d=" M 5.948657606882904 0.8065177632372359 C 6.0130966311300105 0.7020301865374889 6.12872553445192 0.65644108246734 6.2068954909685035 0.7046800155719494 C 6.285065447485087 0.7528587252894119 6.296266997494396 0.8766780092632908 6.23182797324729 0.9811053625758906 C 6.167388949000184 1.0855929392756378 6.051760045678273 1.1312422667329334 5.973590089161691 1.0830033336283242 C 5.895420132645108 1.0347644005237147 5.884218582635798 0.9110053399369827 5.948657606882904 0.8065177632372359" fill="#ffffff" transform="matrix(1,0,0,1,0,0)" fill-rule="nonzero"></path></g><g clip-path="url(#a72a0ab9e-1eb5-4d5e-afc5-6507a6a3a84ef2dc0da9-d6f5-41f1-ac5c-e0331d91b54f)"><path d=" M 6.043328771477718 1.1094414005857818 C 6.017417257487331 1.1096960749442957 5.991949617880712 1.1027086390161895 5.969796015771441 1.0892665658915943 C 5.888313772961782 1.0389800376239928 5.876088425370976 0.9104633294526613 5.942514821393928 0.8027236898469857 C 5.974493439968893 0.7508111301264199 6.019781427103308 0.7113648115452476 6.070007731983763 0.6915513171739409 C 6.1210169408971264 0.6714367058669004 6.171002352228994 0.6738456413527735 6.210810011133047 0.6984167833086793 C 6.250677893424248 0.7229879252645852 6.275309258767301 0.766589657558889 6.280187353126193 0.821152046313915 C 6.285065447485087 0.8749315310360328 6.270130047472673 0.9331073230198689 6.238151428897707 0.9849596593532878 C 6.189852272405951 1.0633102860313115 6.113007230406598 1.1094414005857818 6.043328771477718 1.1094414005857818 M 5.954981062533321 0.810372060014633 C 5.892770303610647 0.9112462334855701 5.902887832651315 1.0307896569720243 5.9775046093262345 1.076800324752201 C 6.052121386001155 1.1228109925323775 6.16347442883564 1.0781854626565779 6.225685187758314 0.9773112891856407 C 6.2560377748803155 0.9281087818866821 6.27019027085982 0.8731248294216281 6.265613293436662 0.8224769608311454 C 6.261156762787795 0.7726119962735717 6.238934332930616 0.7329850075309587 6.203101417578253 0.7108830244480728 C 6.167328725613038 0.6888412647523338 6.121920291704329 0.6867936695893414 6.0753676134398304 0.7051618026691242 C 6.028092254529571 0.7238310526846409 5.985333649655322 0.7611695527156744 5.954981062533321 0.810372060014633" fill="#0e1425" transform="matrix(1,0,0,1,0,0)" fill-rule="nonzero"></path></g><g clip-path="url(#a72a0ab9e-1eb5-4d5e-afc5-6507a6a3a84ef2dc0da9-d6f5-41f1-ac5c-e0331d91b54f)"><path d=" M 5.629473655004714 -0.004450368081952372 C 5.675604769559185 -0.0983386286438575 5.825079216457612 -0.0987601923538853 5.825079216457612 -0.0987601923538853 L 5.764253595439316 0.06215669810243962 C 5.764253595439316 0.06215669810243962 5.583342540450245 0.08943789247995276 5.629473655004714 -0.004450368081952372" fill="#0e1425" transform="matrix(1,0,0,1,0,0)" fill-rule="nonzero"></path></g><g clip-path="url(#a72a0ab9e-1eb5-4d5e-afc5-6507a6a3a84ef2dc0da9-d6f5-41f1-ac5c-e0331d91b54f)"><path d=" M 5.722217671210831 0.07125042956161046 C 5.686264309084174 0.07125042956161046 5.650371170344664 0.06570987794410227 5.632304154200616 0.04692018115429189 C 5.620319700158397 0.03451416340204527 5.616886967091028 0.01789250854952068 5.622126401772802 -0.0023425495318135925 C 5.64892580905314 -0.10719146655444146 5.876630435855298 -0.11616475123931888 5.886326401185937 -0.11652609156219981 C 5.888614889897516 -0.11688743188508079 5.891144272157684 -0.11544207059355692 5.89252941006206 -0.11345469881771159 C 5.893948041268564 -0.11143396046572626 5.894285597922808 -0.10884602611651353 5.893432760869263 -0.10652900929582632 L 5.829957310816506 0.055532125516288305 C 5.829043766581659 0.057819591230727774 5.827060999868854 0.059509449224595695 5.824657652747585 0.0600488795523004 C 5.790939564865899 0.06699800773029277 5.756640743352657 0.07074849614973014 5.7222176712108315 0.07125042956161046 M 5.875606638273801 -0.10122935122690546 C 5.829595970493625 -0.0980977350952704 5.65729685986655 -0.0807533995969839 5.636278897752306 0.001270853696996102 C 5.632364377587763 0.016507370645143626 5.634532419525049 0.028130484364481456 5.642843246951311 0.03680265211362477 C 5.672894717137578 0.06799836665568174 5.775756262384361 0.055050338419113665 5.817792186612847 0.0465588408314109 Z" fill="#0e1425" transform="matrix(1,0,0,1,0,0)" fill-rule="nonzero"></path></g><g clip-path="url(#a72a0ab9e-1eb5-4d5e-afc5-6507a6a3a84ef2dc0da9-d6f5-41f1-ac5c-e0331d91b54f)"><path d=" M 5.759676618016157 0.07685120456626557 C 5.7572973118842405 0.07683359107096296 5.755073844399865 0.07566486506533021 5.753710167481206 0.07371504631321235 C 5.752346490562547 0.07176522756109446 5.752011461898124 0.06927575293291863 5.752811151881419 0.06703479246133257 L 5.819056877742931 -0.11658631494934656 C 5.820444489464665 -0.12038954546907024 5.824628455531659 -0.12237424732136229 5.8284517261378355 -0.12104284559821185 C 5.832254931857513 -0.11965694235480231 5.834220768907459 -0.11545597550834145 5.832848033399554 -0.11164799720330662 L 5.766542084150895 0.0720333335945193 C 5.765499815079967 0.07492734160132067 5.7627525879499535 0.07685522028904979 5.759676618016157 0.07685120456626557" fill="#0e1425" transform="matrix(1,0,0,1,0,0)" fill-rule="nonzero"></path></g><g clip-path="url(#SvgjsClipPath1000f2dc0da9-d6f5-41f1-ac5c-e0331d91b54f)"><path d=" M 4.322325603836857 -0.041957722416328586 L 4.25620032474964 0.3652728214705236 L 4.753585279195294 0.315708973848684 L 4.853375431697589 -0.11314176602387954 Z" fill="#0e1425" transform="matrix(1,0,0,1,0,0)" fill-rule="nonzero"></path></g><g clip-path="url(#b72a0ab9e-1eb5-4d5e-afc5-6507a6a3a84ef2dc0da9-d6f5-41f1-ac5c-e0331d91b54f)"><path d=" M 5.9249898157342 0.6049500864568019 L 5.689697042151543 0.06793814326853492 L 5.5871968372276415 0.11346702395153707 L 5.729564924442744 0.5423177638241007 C 5.729564924442744 0.5423177638241007 5.659344455029542 0.7947139793564576 5.600506205787091 0.8345818616476578 C 5.541667956544639 0.8743895205517113 4.858554076138167 0.8687285221599095 4.858554076138167 0.8687285221599095 L 4.820613342235665 0.9465371383536115 C 4.820613342235665 0.9465371383536115 5.5891239856163395 0.9541252851341119 5.644168161468541 0.9370218431844125 C 5.699152113933595 0.9199786246218601 5.9249898157342 0.6049500864568019 5.9249898157342 0.6049500864568019" fill="#bf0000" transform="matrix(1,0,0,1,0,0)" fill-rule="nonzero"></path></g><g clip-path="url(#b72a0ab9e-1eb5-4d5e-afc5-6507a6a3a84ef2dc0da9-d6f5-41f1-ac5c-e0331d91b54f)"><path d=" M 4.287275025663355 0.6275338566368626 L 4.121540264235284 0.6354231203530971 L 4.205371219143668 0.5267199065530722 C 4.205371219143668 0.5267199065530722 4.312026837780701 0.4130783750070075 4.453672244350041 0.39705895402595104 C 4.595317650919381 0.38109975643204164 5.223929365957973 0.36688703706539016 5.223929365957973 0.36688703706539016 L 5.276383936162861 0.4987762549169439 C 5.276383936162861 0.4987762549169439 5.075478716641042 0.5093755710547856 5.085897362617443 0.6317494937371405 C 5.096316008593845 0.7541234164194954 5.220677303052045 0.7824284083785047 5.220677303052045 0.7824284083785047 L 5.225615620798084 0.8946245786330457 L 4.851507939841988 0.9044409907379786 C 4.851507939841988 0.9044409907379786 4.921547739093749 0.5924236219302618 4.7191369348932595 0.5717067767517529 C 4.516665907305623 0.5509899315732439 4.287275025663355 0.6275338566368626 4.287275025663355 0.6275338566368626" fill="#bf0000" transform="matrix(1,0,0,1,0,0)" fill-rule="nonzero"></path></g><g clip-path="url(#b72a0ab9e-1eb5-4d5e-afc5-6507a6a3a84ef2dc0da9-d6f5-41f1-ac5c-e0331d91b54f)"><path d=" M 5.656212838897907 0.8908907286299422 C 5.656212838897907 0.8908907286299422 5.838027244694181 0.5612881307753516 6.1100562844364035 0.504015689598718 C 6.482537933939536 0.42560483953354766 6.403043062905723 0.7494259922220429 6.403043062905723 0.7494259922220429 Z" fill="#bf0000" transform="matrix(1,0,0,1,0,0)" fill-rule="nonzero"></path></g><g clip-path="url(#b72a0ab9e-1eb5-4d5e-afc5-6507a6a3a84ef2dc0da9-d6f5-41f1-ac5c-e0331d91b54f)"><path d=" M 4.095583984375001 0.8593336737650042 L 5.020554987563135 0.8144672503406172 C 5.020554987563135 0.8144672503406172 5.197973086097691 0.463666020210343 4.835368072086638 0.43572236857421465 C 4.3388864684481865 0.39754074112312565 4.095583984375001 0.8593336737650042 4.095583984375001 0.8593336737650042" fill="#bf0000" transform="matrix(1,0,0,1,0,0)" fill-rule="nonzero"></path></g><g clip-path="url(#SvgjsClipPath1000f2dc0da9-d6f5-41f1-ac5c-e0331d91b54f)"><path d=" M 4.459635269805791 -0.07154253531424018 L 4.4103725391196855 0.08690519626906479 L 4.712513272435322 0.046856643816424015 L 4.777313637005309 -0.12116660632322661 Z" fill="#bf0000" transform="matrix(1,0,0,1,0,0)" fill-rule="nonzero"></path></g><g clip-path="url(#SvgjsClipPath1000f2dc0da9-d6f5-41f1-ac5c-e0331d91b54f)"><path d=" M 4.273951047174776 0.15682511966566975 L 4.837762397643381 0.07841426960049946 L 4.8155399677862025 0.15266970595253865 L 4.260521231841033 0.2233719624629149 Z" fill="#bf0000" transform="matrix(1,0,0,1,0,0)" fill-rule="nonzero"></path></g></g></g><defs><clipPath id="SvgjsClipPath1002"><path d=" M 4.095583984375001 -0.12145279218781624 h 2.3145712246421097 v 1.3754905453131325 h -2.3145712246421097 Z"></path></clipPath><clipPath id="a72a0ab9e-1eb5-4d5e-afc5-6507a6a3a84ef2dc0da9-d6f5-41f1-ac5c-e0331d91b54f"><path d=" M 4.095583984375001 1.2540377531253162 L 6.410149422589049 1.2540377531253162 L 6.410149422589049 -0.12146440930823962 L 4.095583984375001 -0.12146440930823962 Z"></path></clipPath><clipPath id="SvgjsClipPath1000f2dc0da9-d6f5-41f1-ac5c-e0331d91b54f"><path d=" M 4.095583984375001 -0.12145279218781624 L 6.410155209017111 -0.12145279218781624 L 6.410155209017111 1.2540377531253162 L 4.095583984375001 1.2540377531253162 Z"></path></clipPath><clipPath id="b72a0ab9e-1eb5-4d5e-afc5-6507a6a3a84ef2dc0da9-d6f5-41f1-ac5c-e0331d91b54f"><path d=" M 4.095583984375001 1.2540377531253162 L 6.410149422589049 1.2540377531253162 L 6.410149422589049 -0.12146440930823962 L 4.095583984375001 -0.12146440930823962 Z"></path></clipPath></defs></svg>